<svg xmlns="http://www.w3.org/2000/svg" width="1030.056" height="98.113" viewBox="0 0 1030.056 98.113">
  <g id="Group_22" data-name="Group 22" transform="translate(-81.777 -482.188)">
    <path id="Path_116" data-name="Path 116" d="M660.565,559.9l-.609-3.126-.607.521q-3.995,3.561-11.373,3.56-8.77,0-12.763-4.732t-3.993-15.237v-6.511q0-10.418,3.95-15.193t12.632-4.775a19.842,19.842,0,0,1,7.9,1.563,6.931,6.931,0,0,1,1.65,1.041,1.1,1.1,0,0,1,.261.174.512.512,0,0,0,.216.13,2.617,2.617,0,0,1,.3.131V497.91H668.9V559.9ZM641.9,535.155V540.1q0,6.25,1.954,9.159t6.121,2.909q8.158,0,8.161-10.158v-8.769q0-10.242-8.161-10.244a6.851,6.851,0,0,0-6.121,2.908Q641.9,528.819,641.9,535.155Z" fill="#231f20"/>
    <path id="Path_117" data-name="Path 117" d="M691.3,540.278v1.389q0,10.766,9.636,10.765a10.682,10.682,0,0,0,9.2-4.6l7.9,4.6A16.166,16.166,0,0,1,711,558.9q-4.254,1.954-11.286,1.954-10.073,0-14.672-5.079t-4.6-16.279v-3.125q0-11.632,4.471-16.8t14.629-5.166q10.158,0,14.629,5.166t4.471,16.8v3.907Zm-.087-7.467h17.277v-.955q0-4.6-2.214-6.989T699.8,522.48a8.222,8.222,0,0,0-6.338,2.431q-2.259,2.431-2.257,6.945Z" fill="#231f20"/>
    <path id="Path_118" data-name="Path 118" d="M726.2,552.345l7.9-4.6a10.528,10.528,0,0,0,3.994,3.647,15.11,15.11,0,0,0,6.077.954q8.856,0,8.856-5.643a3.781,3.781,0,0,0-2.431-3.906,34.518,34.518,0,0,0-7.119-1.3q-8.25-1.041-11.59-3.907t-3.343-9.029q0-6.856,4.167-10.505t11.894-3.646q12.155,0,17.451,8.508l-7.987,4.6a10.491,10.491,0,0,0-3.647-3.6,10.913,10.913,0,0,0-5.035-1q-6.6,0-6.6,5.122a3.751,3.751,0,0,0,1.563,3.43q1.563,1,6.164,1.519,9.376,1.041,12.676,3.386,4.078,2.865,4.08,10.505,0,7.119-4.558,10.548t-14.108,3.43Q730.711,560.854,726.2,552.345Z" fill="#231f20"/>
    <path id="Path_119" data-name="Path 119" d="M773.252,508.415V497.39h10.765v11.025Zm0,51.484V515.361h10.765V559.9Z" fill="#231f20"/>
    <path id="Path_120" data-name="Path 120" d="M822.391,559.985l.086-2.17a17.508,17.508,0,0,1-10.591,3.039q-8.509,0-12.459-4.775t-3.95-15.194v-6.511q0-10.5,3.993-15.237t12.763-4.731q7.466,0,11.634,3.907l.955-2.952h8.334V558.77q0,10.939-4.905,16.235t-15.063,5.3q-11.895,0-16.756-8.422l7.987-4.6a10.378,10.378,0,0,0,3.516,3.646,10.026,10.026,0,0,0,4.905,1.042q4.861,0,7.163-2.821T822.391,559.985Zm-16.236-24.83V540.1q0,6.25,1.954,9.159t6.121,2.909q8.159,0,8.161-10.158v-8.769q0-10.242-8.161-10.244a6.851,6.851,0,0,0-6.121,2.908Q806.156,528.819,806.155,535.155Z" fill="#231f20"/>
    <path id="Path_121" data-name="Path 121" d="M846.091,559.9V515.361h8.074l.955,3.907q3.992-4.862,11.894-4.862,11.546,0,14.759,8.595,1.3,3.473,1.3,11.373V559.9H872.31V535.59q0-6.425-1.736-9.2t-5.73-2.779q-4.343,0-6.164,3t-1.824,10.288V559.9Z" fill="#231f20"/>
    <path id="Path_204" data-name="Path 204" d="M348.217,550.9a21.655,21.655,0,0,1-7.442-1.192,12.684,12.684,0,0,1-5.485-3.833,4.841,4.841,0,0,1-1.656,1.661,20.115,20.115,0,0,0-1.831,1.192,5.59,5.59,0,0,0-1.481,1.661,5.9,5.9,0,0,0-.609,2.982v14.139h-9.54V551.58a12.121,12.121,0,0,1,.724-4.515,9.213,9.213,0,0,1,1.874-2.981,12.561,12.561,0,0,1,2.47-2q1.318-.809,2.47-1.619a12.428,12.428,0,0,0,2.044-1.788,4.433,4.433,0,0,0,1.065-2.6q-.086-.851-.128-1.746t-.042-1.917a26.215,26.215,0,0,1,1.32-8.858,14.842,14.842,0,0,1,3.663-5.877,14.226,14.226,0,0,1,5.578-3.237,24.382,24.382,0,0,1,13.97,0,14.251,14.251,0,0,1,5.579,3.237,14.873,14.873,0,0,1,3.662,5.877,26.24,26.24,0,0,1,1.32,8.858c0,.511-.014,1.009-.042,1.491s-.072.951-.128,1.4q.17,3.578,1.746,5.068a5.017,5.017,0,0,0,3.535,1.491h2.47a3.283,3.283,0,0,1,2.555.937,4.656,4.656,0,0,1,.852,3.151,5.336,5.336,0,0,1-.809,3.407,3.258,3.258,0,0,1-2.6.937q-1.449,0-3.023-.085a14.393,14.393,0,0,1-3.11-.511,10.883,10.883,0,0,1-2.938-1.32,8.485,8.485,0,0,1-2.513-2.6,12.827,12.827,0,0,1-5.783,3.918A23.8,23.8,0,0,1,348.217,550.9Zm.022-28.96a7.1,7.1,0,0,0-6.059,2.641q-1.992,2.642-1.991,7.666,0,5.451,1.991,7.836t6.059,2.385q4.065,0,6.015-2.428t1.949-7.793Q356.2,521.94,348.239,521.938Z" fill="#231f20"/>
    <path id="Path_205" data-name="Path 205" d="M391.646,545.914a6.532,6.532,0,0,1-3.588,3.442,18.1,18.1,0,0,1-6.473.946h-7.921a3.558,3.558,0,0,1-2.556-.817q-.851-.816-.852-3.226a5.638,5.638,0,0,1,.81-3.484,3.165,3.165,0,0,1,2.6-.991H379.2a4.76,4.76,0,0,0,2.342-.466,2.77,2.77,0,0,0,1.193-1.443,8.358,8.358,0,0,0,.468-2.548q.084-1.57.085-3.863V515.8a.661.661,0,0,1,.465-.679,2.8,2.8,0,0,1,.97-.17h7.261a.748.748,0,0,1,.844.849v20.718a4.493,4.493,0,0,0,1.917,3.905,8.743,8.743,0,0,0,5.153,1.358h1.448a3.265,3.265,0,0,1,2.555.947,4.737,4.737,0,0,1,.852,3.183,5.437,5.437,0,0,1-.809,3.442,3.244,3.244,0,0,1-2.6.946,18.436,18.436,0,0,1-5.792-.817A6.832,6.832,0,0,1,391.646,545.914Zm-13.213,20.742a.756.756,0,0,1-.851-.86V558.4a.756.756,0,0,1,.851-.86h7.155a.757.757,0,0,1,.852.86V565.8a.757.757,0,0,1-.852.86Zm11.073,0a.757.757,0,0,1-.852-.86V558.4a.757.757,0,0,1,.852-.86h7.155a.757.757,0,0,1,.852.86V565.8a.757.757,0,0,1-.852.86Z" fill="#231f20"/>
    <path id="Path_206" data-name="Path 206" d="M410.033,531.509a24.524,24.524,0,0,1,1.409-8.365,14.615,14.615,0,0,1,3.671-5.6,14.218,14.218,0,0,1,5.508-3.142,24.764,24.764,0,0,1,13.918.042,14.276,14.276,0,0,1,5.592,3.226,14.81,14.81,0,0,1,3.671,5.86,26.041,26.041,0,0,1,1.324,8.832v1.486a11.414,11.414,0,0,1-.085,1.4q.084,3.567,1.661,5.053a5.125,5.125,0,0,0,3.62,1.485h2.47a3.265,3.265,0,0,1,2.555.947,4.737,4.737,0,0,1,.852,3.183,5.437,5.437,0,0,1-.809,3.442,3.245,3.245,0,0,1-2.6.946q-1.449,0-3.024-.085a13.374,13.374,0,0,1-3.151-.56,11.956,11.956,0,0,1-2.995-1.379,8.911,8.911,0,0,1-2.535-2.542,12.884,12.884,0,0,1-5.752,3.958,25.888,25.888,0,0,1-15.466.044,12.885,12.885,0,0,1-5.71-3.829,7.747,7.747,0,0,1-2.064,2.24,10.555,10.555,0,0,1-2.485,1.335,11.788,11.788,0,0,1-2.643.646,20.422,20.422,0,0,1-2.555.172H401.43a3.184,3.184,0,0,1-2.555-.989,5.085,5.085,0,0,1-.852-3.312q0-2.5.81-3.355a3.424,3.424,0,0,1,2.6-.862h3.322a5,5,0,0,0,3.663-1.655q1.617-1.658,1.7-6.073a10.192,10.192,0,0,1-.085-1.272Zm17.5-9.571q-4.068,0-6.015,2.63t-1.949,7.634q0,5.43,1.949,7.8t6.015,2.375q4.154,0,6.1-2.417t1.948-7.762Q435.586,521.939,427.537,521.938Z" fill="#231f20"/>
    <path id="Path_207" data-name="Path 207" d="M452.621,550.3a2.749,2.749,0,0,1-2.342-.86,5.651,5.651,0,0,1-.639-3.183,7.226,7.226,0,0,1,.6-3.528,2.61,2.61,0,0,1,2.384-.947h10.222a3.265,3.265,0,0,1,2.555.947,4.9,4.9,0,0,1,.852,3.27q0,2.667-.809,3.484a3.536,3.536,0,0,1-2.6.817Z" fill="#231f20"/>
    <path id="Path_208" data-name="Path 208" d="M459.435,550.3a2.749,2.749,0,0,1-2.342-.86,5.651,5.651,0,0,1-.639-3.183,7.241,7.241,0,0,1,.6-3.528,2.613,2.613,0,0,1,2.385-.947h10.221a3.268,3.268,0,0,1,2.556.947,4.9,4.9,0,0,1,.851,3.27q0,2.667-.809,3.484a3.533,3.533,0,0,1-2.6.817Z" fill="#231f20"/>
    <path id="Path_209" data-name="Path 209" d="M469.656,550.3a2.749,2.749,0,0,1-2.342-.86,5.651,5.651,0,0,1-.639-3.183,7.229,7.229,0,0,1,.6-3.528,2.612,2.612,0,0,1,2.385-.947h10.221a3.268,3.268,0,0,1,2.556.947,4.9,4.9,0,0,1,.851,3.27q0,2.667-.809,3.484a3.534,3.534,0,0,1-2.6.817Z" fill="#231f20"/>
    <path id="Path_210" data-name="Path 210" d="M497.594,518.191a54.916,54.916,0,0,1,8.876-3.365,36.118,36.118,0,0,1,10.073-1.4,27.927,27.927,0,0,1,9.517,1.444,16.707,16.707,0,0,1,6.488,4.076,15.788,15.788,0,0,1,3.67,6.413,28.6,28.6,0,0,1,1.153,8.363q0,.851-.043,1.571c-.029.482-.042.892-.042,1.232a4.737,4.737,0,0,0,1.959,3.906,8.543,8.543,0,0,0,5.111,1.358H545.8a3.268,3.268,0,0,1,2.556.947,4.743,4.743,0,0,1,.851,3.183,5.437,5.437,0,0,1-.809,3.442,3.242,3.242,0,0,1-2.6.946,17.691,17.691,0,0,1-6.431-1.075,7.4,7.4,0,0,1-4.13-4.345A8.361,8.361,0,0,1,530,549.313a33.823,33.823,0,0,1-9.071.989h-16.78q-1.363,0-2.811-.042t-2.811-.213q-1.363-.169-2.6-.426a6.663,6.663,0,0,1-2.086-.767,7.2,7.2,0,0,1-3.024,1.193,25.86,25.86,0,0,1-3.876.255h-7.069a3.561,3.561,0,0,1-2.556-.817q-.849-.816-.851-3.226,0-2.752.809-3.613a3.425,3.425,0,0,1,2.6-.862H483.8a3.9,3.9,0,0,0,2.47-.678,3.82,3.82,0,0,0,1.235-1.91,11.681,11.681,0,0,0,.469-2.843q.082-1.613.085-3.4V515.465a.749.749,0,0,1,.843-.852h7.853a.751.751,0,0,1,.844.852Zm17.6,3.747a31.327,31.327,0,0,0-9.4,1.443,63.794,63.794,0,0,0-8.2,3.137v11.535c0,.678-.03,1.329-.086,1.951a16.9,16.9,0,0,1-.255,1.78h18.535q3.673,0,5.937-.126a7.16,7.16,0,0,0,3.5-.933,4.033,4.033,0,0,0,1.666-2.544,21.54,21.54,0,0,0,.427-4.878,19.148,19.148,0,0,0-.555-4.834,7.819,7.819,0,0,0-1.964-3.561,9.086,9.086,0,0,0-3.716-2.206A19.124,19.124,0,0,0,515.191,521.938Z" fill="#231f20"/>
    <path id="Path_211" data-name="Path 211" d="M545.8,550.3a3.558,3.558,0,0,1-2.556-.817,4.364,4.364,0,0,1-.852-3.141,5.851,5.851,0,0,1,.81-3.527,3.1,3.1,0,0,1,2.6-1.033h5.536a4.264,4.264,0,0,0,3.109-.975,4.945,4.945,0,0,0,.979-3.524V515.8a.748.748,0,0,1,.844-.849h7.852a.75.75,0,0,1,.844.852V539.57q0,5.538-2.28,8.134t-7.6,2.6Zm5.28-43.866a.756.756,0,0,1-.851-.86v-7.394a.756.756,0,0,1,.851-.86h7.155a.758.758,0,0,1,.852.86v7.394a.757.757,0,0,1-.852.86Zm11.073,0a.756.756,0,0,1-.852-.86v-7.394a.757.757,0,0,1,.852-.86h7.155a.758.758,0,0,1,.852.86v7.394a.757.757,0,0,1-.852.86Z" fill="#231f20"/>
    <rect id="Rectangle_20" data-name="Rectangle 20" width="1030.056" height="97.149" transform="translate(81.777 482.188)" fill="none"/>
  </g>
</svg>
