<svg xmlns="http://www.w3.org/2000/svg" width="1030.056" height="107.536" viewBox="0 0 1030.056 107.536">
  <g id="digital" transform="translate(-81.777 -110.759)">
    <path id="Path_83" data-name="Path 83" d="M660.565,188.676l-.609-3.125-.607.52q-3.995,3.561-11.373,3.56-8.77,0-12.763-4.732t-3.993-15.236v-6.512q0-10.418,3.95-15.193t12.632-4.775a19.842,19.842,0,0,1,7.9,1.563,6.978,6.978,0,0,1,1.65,1.042,1.077,1.077,0,0,1,.261.173.512.512,0,0,0,.216.13,2.8,2.8,0,0,1,.3.131V126.688H668.9v61.988ZM641.9,163.933v4.948q0,6.251,1.954,9.16t6.121,2.908q8.158,0,8.161-10.158v-8.768q0-10.243-8.161-10.245a6.85,6.85,0,0,0-6.121,2.909Q641.9,157.6,641.9,163.933Z" fill="#231f20"/>
    <path id="Path_84" data-name="Path 84" d="M681.92,137.193V126.167h10.766v11.026Zm0,51.483V144.138h10.766v44.538Z" fill="#231f20"/>
    <path id="Path_85" data-name="Path 85" d="M731.059,188.763l.087-2.171a17.511,17.511,0,0,1-10.592,3.039q-8.51,0-12.459-4.775t-3.95-15.193v-6.512q0-10.5,3.994-15.236t12.762-4.732q7.465,0,11.634,3.907l.955-2.952h8.335v43.409q0,10.939-4.906,16.235t-15.063,5.3q-11.895,0-16.755-8.421l7.987-4.6A10.381,10.381,0,0,0,716.6,199.7a10.037,10.037,0,0,0,4.9,1.042q4.862,0,7.162-2.822T731.059,188.763Zm-16.235-24.83v4.948q0,6.251,1.953,9.16t6.121,2.908q8.16,0,8.161-10.158v-8.768q0-10.243-8.161-10.245a6.851,6.851,0,0,0-6.121,2.909Q714.824,157.6,714.824,163.933Z" fill="#231f20"/>
    <path id="Path_86" data-name="Path 86" d="M754.846,137.193V126.167h10.766v11.026Zm0,51.483V144.138h10.766v44.538Z" fill="#231f20"/>
    <path id="Path_87" data-name="Path 87" d="M779.762,152.646h-5.036v-8.508h5.036l.608-13.023h10.157v13.023h8.856v8.508h-8.856v18.493q0,5.122,1.606,6.988t6.034,1.78h1.216v8.769H797.82q-11.2,0-14.629-3.516T779.762,170.1Z" fill="#231f20"/>
    <path id="Path_88" data-name="Path 88" d="M833.067,161.762v-2q0-4.169-1.823-6.078t-5.73-1.91a10.943,10.943,0,0,0-9.029,4.428l-7.466-5.3q5.9-7.727,17.537-7.727,12.066,0,15.627,7.466,1.648,3.387,1.65,11.026v27h-8.422l-.694-2.6q-3.907,3.561-12.155,3.56t-11.72-3.169q-3.474-3.168-3.473-10.635,0-7.987,3.6-11.026t13.066-3.039Zm0,7.293H825.34q-4.167,0-5.947,1.476t-1.779,4.862q0,3.385,1.693,4.688t6.033,1.3q5.122,0,6.772-2.431.956-1.3.955-5.209Z" fill="#231f20"/>
    <path id="Path_89" data-name="Path 89" d="M856.334,126.688H867.1v44.451q-.087,5.035,1.562,6.945t6.078,1.823h1.649v8.769h-2.083q-10.94,0-14.456-3.646T856.334,170.1Z" fill="#231f20"/>
    <path id="Path_157" data-name="Path 157" d="M369.661,194.616q5.11,0,6.985-1.284a3.828,3.828,0,0,0,1.873-3.253,4.163,4.163,0,0,0-.979-2.782,9.927,9.927,0,0,0-3.066-2.226,46.506,46.506,0,0,0-5.281-2.225q-3.2-1.156-7.539-2.783a.719.719,0,0,1-.511-1.028l2.3-6.735c.171-.567.512-.767,1.022-.6q2.726,1.021,5.2,2.086t4.855,1.874q2.384.812,4.672,1.363a19.99,19.99,0,0,0,4.735.554h8.494a3.448,3.448,0,0,1,2.555.861,4.381,4.381,0,0,1,.851,3.1,5.844,5.844,0,0,1-.809,3.527,3.1,3.1,0,0,1-2.6,1.032H386.54a12.9,12.9,0,0,1,.969,2.172,9.143,9.143,0,0,1,.55,3.195,11.114,11.114,0,0,1-.935,4.514,9.983,9.983,0,0,1-2.935,3.748,15.35,15.35,0,0,1-5.189,2.6,26.813,26.813,0,0,1-7.78.979H351.827q-11.057,0-16.457-5.111t-5.4-13.883a25.392,25.392,0,0,1,.468-4.813,35.448,35.448,0,0,1,1.235-4.685,36.045,36.045,0,0,1,1.747-4.258,24.144,24.144,0,0,1,2.086-3.535q.426-.681,1.193-.17l6.729,3.492a.71.71,0,0,1,.255,1.107A35.866,35.866,0,0,0,341,176.984a17.569,17.569,0,0,0-1.236,6.474,11.213,11.213,0,0,0,1.15,5.366,9.5,9.5,0,0,0,3.024,3.407,12.516,12.516,0,0,0,4.258,1.832,21.462,21.462,0,0,0,4.856.553Zm-19.079,23.679a.756.756,0,0,1-.852-.86v-7.394a.756.756,0,0,1,.852-.86h7.154a.757.757,0,0,1,.852.86v7.394a.757.757,0,0,1-.852.86Zm11.072,0a.756.756,0,0,1-.851-.86v-7.394a.756.756,0,0,1,.851-.86h7.155a.757.757,0,0,1,.852.86v7.394a.757.757,0,0,1-.852.86Z" fill="#231f20"/>
    <path id="Path_158" data-name="Path 158" d="M401.091,167.3a24.548,24.548,0,0,1,1.408-8.364,14.621,14.621,0,0,1,3.672-5.6,14.214,14.214,0,0,1,5.507-3.142,24.755,24.755,0,0,1,13.919.043,14.259,14.259,0,0,1,5.592,3.226,14.794,14.794,0,0,1,3.67,5.859,26.019,26.019,0,0,1,1.325,8.832v1.487a11.387,11.387,0,0,1-.085,1.4q.084,3.567,1.66,5.054a5.127,5.127,0,0,0,3.621,1.485h2.47a3.264,3.264,0,0,1,2.555.946,4.74,4.74,0,0,1,.852,3.184,5.428,5.428,0,0,1-.81,3.441,3.241,3.241,0,0,1-2.6.946q-1.451,0-3.024-.085a13.374,13.374,0,0,1-3.152-.56,11.966,11.966,0,0,1-2.994-1.379,8.914,8.914,0,0,1-2.536-2.542,12.869,12.869,0,0,1-5.752,3.958,25.868,25.868,0,0,1-15.466.044,12.875,12.875,0,0,1-5.709-3.829,7.749,7.749,0,0,1-2.064,2.24,10.52,10.52,0,0,1-2.485,1.335,11.872,11.872,0,0,1-2.643.647,20.6,20.6,0,0,1-2.556.171h-2.981a3.184,3.184,0,0,1-2.555-.989,5.084,5.084,0,0,1-.852-3.312q0-2.494.809-3.355a3.427,3.427,0,0,1,2.6-.861h3.322a5,5,0,0,0,3.663-1.656q1.615-1.656,1.7-6.073a10.191,10.191,0,0,1-.085-1.272Zm17.5-9.57q-4.07,0-6.016,2.63T410.631,168q0,5.429,1.948,7.8t6.016,2.374q4.152,0,6.1-2.417T426.644,168Q426.644,157.735,418.6,157.735Z" fill="#231f20"/>
    <path id="Path_159" data-name="Path 159" d="M443.679,186.1a2.752,2.752,0,0,1-2.342-.859,5.657,5.657,0,0,1-.639-3.184,7.246,7.246,0,0,1,.6-3.528,2.612,2.612,0,0,1,2.385-.946H453.9a3.264,3.264,0,0,1,2.555.946,4.9,4.9,0,0,1,.852,3.27q0,2.667-.81,3.484a3.532,3.532,0,0,1-2.6.817Z" fill="#231f20"/>
    <path id="Path_160" data-name="Path 160" d="M453.9,186.1a2.754,2.754,0,0,1-2.343-.859,5.667,5.667,0,0,1-.638-3.184,7.234,7.234,0,0,1,.6-3.528,2.612,2.612,0,0,1,2.385-.946h10.221a3.263,3.263,0,0,1,2.555.946,4.894,4.894,0,0,1,.852,3.27q0,2.667-.809,3.484a3.533,3.533,0,0,1-2.6.817Z" fill="#231f20"/>
    <path id="Path_161" data-name="Path 161" d="M464.121,186.1a2.754,2.754,0,0,1-2.343-.859,5.659,5.659,0,0,1-.638-3.184,7.234,7.234,0,0,1,.6-3.528,2.612,2.612,0,0,1,2.385-.946h10.221a3.264,3.264,0,0,1,2.555.946,4.9,4.9,0,0,1,.852,3.27q0,2.667-.809,3.484a3.536,3.536,0,0,1-2.6.817Z" fill="#231f20"/>
    <path id="Path_162" data-name="Path 162" d="M474.341,186.1a2.752,2.752,0,0,1-2.342-.859,5.657,5.657,0,0,1-.639-3.184,7.232,7.232,0,0,1,.6-3.528,2.61,2.61,0,0,1,2.384-.946h10.222a3.264,3.264,0,0,1,2.555.946,4.9,4.9,0,0,1,.852,3.27q0,2.667-.809,3.484a3.536,3.536,0,0,1-2.6.817Z" fill="#231f20"/>
    <path id="Path_163" data-name="Path 163" d="M479.452,186.1a2.753,2.753,0,0,1-2.343-.859,5.667,5.667,0,0,1-.638-3.184,7.235,7.235,0,0,1,.6-3.528,2.611,2.611,0,0,1,2.385-.946h10.221a3.264,3.264,0,0,1,2.555.946,4.9,4.9,0,0,1,.852,3.27q0,2.667-.809,3.484a3.533,3.533,0,0,1-2.6.817Z" fill="#231f20"/>
    <path id="Path_164" data-name="Path 164" d="M489.672,186.1a2.752,2.752,0,0,1-2.342-.859,5.657,5.657,0,0,1-.639-3.184,7.232,7.232,0,0,1,.6-3.528,2.61,2.61,0,0,1,2.384-.946h10.222a3.264,3.264,0,0,1,2.555.946,4.9,4.9,0,0,1,.852,3.27q0,2.667-.809,3.484a3.536,3.536,0,0,1-2.6.817Z" fill="#231f20"/>
    <path id="Path_165" data-name="Path 165" d="M500.745,186.1a3.443,3.443,0,0,1-2.6-.852q-.809-.849-.809-3.492a4.656,4.656,0,0,1,.852-3.151,3.285,3.285,0,0,1,2.555-.937h8.092a19.963,19.963,0,0,1-1.959-9.455,24.711,24.711,0,0,1,1.408-8.858,14.5,14.5,0,0,1,9.478-9.114,21.918,21.918,0,0,1,6.7-1.022,23.2,23.2,0,0,1,7,1.022,14.277,14.277,0,0,1,5.593,3.237,14.852,14.852,0,0,1,3.67,5.877,26.158,26.158,0,0,1,1.325,8.858,24.092,24.092,0,0,1-1.282,8.433,14.153,14.153,0,0,1-3.587,5.536,13.2,13.2,0,0,1-5.55,3.024,26.966,26.966,0,0,1-7.173.894Zm14.736-43.866a.756.756,0,0,1-.852-.859v-7.4a.756.756,0,0,1,.852-.859h7.155a.757.757,0,0,1,.851.859v7.4a.756.756,0,0,1-.851.859Zm8.943,15.5a7.128,7.128,0,0,0-5.962,2.6q-2.044,2.6-2.045,7.282,0,5.622,1.96,7.879t6.047,2.257q4.173,0,6.133-2.172t1.959-7.538Q532.516,157.736,524.424,157.735Zm2.13-15.5a.756.756,0,0,1-.852-.859v-7.4a.756.756,0,0,1,.852-.859h7.154a.757.757,0,0,1,.852.859v7.4a.756.756,0,0,1-.852.859Z" fill="#231f20"/>
    <path id="Path_166" data-name="Path 166" d="M547.676,203.3a.753.753,0,0,1-.851-.852v-6.814a.752.752,0,0,1,.851-.852h1.874q3.578,0,5.153-1.788t1.576-5.451V151.6a.75.75,0,0,1,.844-.852h7.852a.75.75,0,0,1,.844.852v36.115q0,15.587-14.991,15.587Z" fill="#231f20"/>
    <rect id="Rectangle_16" data-name="Rectangle 16" width="1030.056" height="107.297" transform="translate(81.777 110.759)" fill="none"/>
  </g>
</svg>
