<svg xmlns="http://www.w3.org/2000/svg" width="1030.056" height="94.442" viewBox="0 0 1030.056 94.442">
  <g id="Group_20" data-name="Group 20" transform="translate(-81.777 -661.74)">
    <path id="Path_129" data-name="Path 129" d="M642.072,725.889v1.389q0,10.766,9.637,10.765a10.685,10.685,0,0,0,9.2-4.6l7.9,4.6a16.176,16.176,0,0,1-7.032,6.468q-4.256,1.955-11.287,1.954-10.071,0-14.672-5.079t-4.6-16.279v-3.125q0-11.633,4.471-16.8t14.629-5.166q10.158,0,14.629,5.166t4.471,16.8v3.907Zm-.087-7.466h17.277v-.956q0-4.6-2.214-6.989t-6.468-2.387a8.219,8.219,0,0,0-6.337,2.431q-2.259,2.432-2.258,6.945Z" fill="#231f20"/>
    <path id="Path_130" data-name="Path 130" d="M690.429,745.51l-15.366-44.538H686l9.55,31.428,9.637-31.428h10.939L700.761,745.51Z" fill="#231f20"/>
    <path id="Path_131" data-name="Path 131" d="M732.97,725.889v1.389q0,10.766,9.637,10.765a10.682,10.682,0,0,0,9.2-4.6l7.9,4.6a16.176,16.176,0,0,1-7.032,6.468q-4.254,1.955-11.286,1.954-10.073,0-14.672-5.079t-4.6-16.279v-3.125q0-11.633,4.471-16.8t14.629-5.166q10.158,0,14.629,5.166t4.471,16.8v3.907Zm-.086-7.466H750.16v-.956q0-4.6-2.213-6.989t-6.469-2.387a8.219,8.219,0,0,0-6.337,2.431q-2.259,2.432-2.257,6.945Z" fill="#231f20"/>
    <path id="Path_132" data-name="Path 132" d="M771.082,745.51V700.972h8.075l.955,3.907q3.992-4.862,11.894-4.862,11.546,0,14.759,8.595,1.3,3.473,1.3,11.373V745.51H797.3V721.2q0-6.424-1.737-9.2t-5.73-2.778q-4.343,0-6.164,3T781.848,722.5V745.51Z" fill="#231f20"/>
    <path id="Path_133" data-name="Path 133" d="M821.784,709.48h-5.036v-8.508h5.036l.607-13.023h10.158v13.023h8.856v8.508h-8.856v18.492q0,5.124,1.606,6.989t6.034,1.78h1.216v8.769h-1.563q-11.2,0-14.629-3.517t-3.429-15.063Z" fill="#231f20"/>
    <path id="Path_134" data-name="Path 134" d="M848.609,737.956l7.9-4.6A10.519,10.519,0,0,0,860.5,737a15.115,15.115,0,0,0,6.077.954q8.856,0,8.856-5.643a3.781,3.781,0,0,0-2.431-3.907,34.606,34.606,0,0,0-7.119-1.3q-8.248-1.041-11.59-3.907t-3.343-9.029q0-6.857,4.167-10.505t11.9-3.646q12.153,0,17.45,8.508l-7.987,4.6a10.481,10.481,0,0,0-3.646-3.6,10.914,10.914,0,0,0-5.036-1q-6.6,0-6.6,5.122a3.751,3.751,0,0,0,1.563,3.43q1.562,1,6.164,1.519,9.377,1.041,12.675,3.386,4.08,2.865,4.08,10.505,0,7.119-4.557,10.548t-14.108,3.43Q853.124,746.465,848.609,737.956Z" fill="#231f20"/>
    <path id="Path_231" data-name="Path 231" d="M366.384,722.911a4.95,4.95,0,0,0,.979-3.524V697.905a.751.751,0,0,1,.852-.849h7.836a.753.753,0,0,1,.852.852v23.764q0,5.538-2.3,8.134t-7.836,2.6h-42.5q-5.365,0-7.665-2.623t-2.3-8.2V703.273a.752.752,0,0,1,.851-.851h7.837a.753.753,0,0,1,.851.851v16.1a4.965,4.965,0,0,0,.98,3.535,4.251,4.251,0,0,0,3.109.979h35.263A4.4,4.4,0,0,0,366.384,722.911Zm-29.6-29.348a.755.755,0,0,1-.851-.859v-7.395a.756.756,0,0,1,.851-.86h7.155a.758.758,0,0,1,.852.86V692.7a.756.756,0,0,1-.852.859Zm11.074,0a.756.756,0,0,1-.852-.859v-7.395a.757.757,0,0,1,.852-.86h7.154a.758.758,0,0,1,.852.86V692.7a.756.756,0,0,1-.852.859Z" fill="#231f20"/>
    <path id="Path_232" data-name="Path 232" d="M386.782,675.335a.749.749,0,0,1,.844-.851h7.852a.749.749,0,0,1,.844.85V719.38a4.951,4.951,0,0,0,.979,3.529,4.253,4.253,0,0,0,3.11.977h2.981a3.188,3.188,0,0,1,2.555.99,5.254,5.254,0,0,1,.852,3.4q0,2.667-.809,3.4a3.818,3.818,0,0,1-2.6.731h-6.729q-5.322,0-7.6-2.6t-2.279-8.134Z" fill="#231f20"/>
    <path id="Path_233" data-name="Path 233" d="M421.884,728.016a6.532,6.532,0,0,1-3.588,3.442,18.121,18.121,0,0,1-6.473.946H403.9a3.559,3.559,0,0,1-2.555-.817q-.851-.817-.852-3.226a5.648,5.648,0,0,1,.809-3.485,3.168,3.168,0,0,1,2.6-.99h5.537a4.748,4.748,0,0,0,2.342-.467,2.762,2.762,0,0,0,1.193-1.443,8.345,8.345,0,0,0,.468-2.547q.084-1.57.085-3.863V697.905a.66.66,0,0,1,.465-.679,2.8,2.8,0,0,1,.97-.17h7.261a.748.748,0,0,1,.844.849v20.718a4.494,4.494,0,0,0,1.917,3.905,8.742,8.742,0,0,0,5.153,1.358h1.448a3.265,3.265,0,0,1,2.555.947,4.735,4.735,0,0,1,.852,3.183,5.439,5.439,0,0,1-.809,3.442,3.248,3.248,0,0,1-2.6.946,18.436,18.436,0,0,1-5.792-.817A6.835,6.835,0,0,1,421.884,728.016Zm-13.213,20.742a.757.757,0,0,1-.852-.86V740.5a.756.756,0,0,1,.852-.86h7.155a.757.757,0,0,1,.852.86V747.9a.757.757,0,0,1-.852.86Zm11.073,0a.756.756,0,0,1-.851-.86V740.5a.756.756,0,0,1,.851-.86H426.9a.757.757,0,0,1,.852.86V747.9a.757.757,0,0,1-.852.86Z" fill="#231f20"/>
    <path id="Path_234" data-name="Path 234" d="M431.669,732.4a3.56,3.56,0,0,1-2.556-.817q-.851-.817-.851-3.313a5.46,5.46,0,0,1,.809-3.4,3.165,3.165,0,0,1,2.6-.99h4.173a4.254,4.254,0,0,0,3.109-.977,4.956,4.956,0,0,0,.98-3.529V675.334a.748.748,0,0,1,.843-.85h7.853a.75.75,0,0,1,.844.851v46.337q0,5.538-2.28,8.134t-7.6,2.6Z" fill="#231f20"/>
    <path id="Path_235" data-name="Path 235" d="M460.628,675.335a.749.749,0,0,1,.844-.851h7.852a.749.749,0,0,1,.844.85V719.38a4.951,4.951,0,0,0,.979,3.529,4.252,4.252,0,0,0,3.109.977h2.982a3.188,3.188,0,0,1,2.555.99,5.255,5.255,0,0,1,.852,3.4q0,2.667-.81,3.4a3.813,3.813,0,0,1-2.6.731h-6.729q-5.324,0-7.6-2.6t-2.279-8.134Z" fill="#231f20"/>
    <path id="Path_236" data-name="Path 236" d="M501.171,695.522q9.794,0,14.31,3.652a11.748,11.748,0,0,1,4.514,9.6,14.084,14.084,0,0,1-.809,4.8,19.052,19.052,0,0,1-2.087,4.162,20.052,20.052,0,0,1-2.9,3.44,23.913,23.913,0,0,1-3.151,2.546,6.1,6.1,0,0,0,1.49.17h12.393a2.947,2.947,0,0,1,2.641,1.033,6.511,6.511,0,0,1,.681,3.442q0,2.409-.809,3.226a3.4,3.4,0,0,1-2.513.817H512.244a29.639,29.639,0,0,1-5.835-.554,15.654,15.654,0,0,1-5.238-2.087,19.325,19.325,0,0,1-5.962,2.087,32.807,32.807,0,0,1-5.622.554H477.322a3.327,3.327,0,0,1-2.471-.86,4.542,4.542,0,0,1-.851-3.183,7.874,7.874,0,0,1,.553-3.355q.555-1.119,2.769-1.12h9.965q1.362,0,3.067-.126a28.654,28.654,0,0,0,4-.638,18.988,18.988,0,0,0-1.831-4.84,19.272,19.272,0,0,0-2.6-3.609,22.257,22.257,0,0,0-3.109-2.8q-1.662-1.23-3.365-2.42a2.479,2.479,0,0,1-1.064-1.231,5.414,5.414,0,0,1-.128-1.232v-5.35q0-.935,1.618-2.038a17.6,17.6,0,0,1,4.259-2,41.139,41.139,0,0,1,6.048-1.486A40.576,40.576,0,0,1,501.171,695.522Zm1.278,25.724a23.722,23.722,0,0,0,2.768-2.044,16.422,16.422,0,0,0,2.47-2.6,14.025,14.025,0,0,0,1.746-3.024,8.482,8.482,0,0,0,.682-3.322q0-3.492-2.513-4.855a13.426,13.426,0,0,0-6.431-1.363,22.831,22.831,0,0,0-5.92.681,18.03,18.03,0,0,0-3.449,1.193,23.254,23.254,0,0,1,6.686,6.431A26.077,26.077,0,0,1,502.449,721.246Z" fill="#231f20"/>
    <path id="Path_237" data-name="Path 237" d="M525.36,732.4a3.45,3.45,0,0,1-2.6-.852q-.809-.851-.809-3.492a4.661,4.661,0,0,1,.852-3.152,3.286,3.286,0,0,1,2.555-.936h8.092a19.965,19.965,0,0,1-1.959-9.455,24.742,24.742,0,0,1,1.408-8.859,14.508,14.508,0,0,1,9.479-9.114,21.91,21.91,0,0,1,6.7-1.022,23.2,23.2,0,0,1,7,1.022,14.285,14.285,0,0,1,5.592,3.237,14.849,14.849,0,0,1,3.671,5.877,26.169,26.169,0,0,1,1.324,8.859,24.086,24.086,0,0,1-1.282,8.432,14.162,14.162,0,0,1-3.586,5.537,13.2,13.2,0,0,1-5.55,3.023,26.93,26.93,0,0,1-7.174.9Zm23.68-28.364a7.132,7.132,0,0,0-5.963,2.6q-2.045,2.6-2.044,7.283,0,5.621,1.959,7.879t6.048,2.257q4.172,0,6.132-2.172t1.959-7.538Q557.131,704.042,549.04,704.04Zm-4.089-15.5a.756.756,0,0,1-.852-.86v-7.394a.757.757,0,0,1,.852-.86h8.177a.757.757,0,0,1,.852.86v7.394a.757.757,0,0,1-.852.86Z" fill="#231f20"/>
    <rect id="Rectangle_22" data-name="Rectangle 22" width="1030.056" height="94.442" transform="translate(81.777 661.74)" fill="none"/>
  </g>
</svg>
