<svg xmlns="http://www.w3.org/2000/svg" width="894.47" height="75.809" viewBox="0 0 894.47 75.809">
  <g id="Group_24" data-name="Group 24" transform="translate(-159.111 -218.972)">
    <path id="Path_90" data-name="Path 90" d="M642.072,261.861v1.389q0,10.766,9.637,10.765a10.685,10.685,0,0,0,9.2-4.6l7.9,4.6a16.176,16.176,0,0,1-7.032,6.468q-4.256,1.953-11.287,1.953-10.071,0-14.672-5.078t-4.6-16.279v-3.125q0-11.634,4.471-16.8t14.629-5.165q10.158,0,14.629,5.165t4.471,16.8v3.907Zm-.087-7.467h17.277v-.955q0-4.6-2.214-6.989t-6.468-2.387a8.219,8.219,0,0,0-6.337,2.431q-2.259,2.432-2.258,6.945Z" fill="#231f20"/>
    <path id="Path_91" data-name="Path 91" d="M689.039,258.648l-13.544-21.7H687.65l8.334,13.457,7.988-13.457h11.72L701.28,258.822l14.065,22.659H703.19l-8.768-14.238-8.335,14.238h-11.72Z" fill="#231f20"/>
    <path id="Path_92" data-name="Path 92" d="M722.551,281.481V219.493h10.765V239.2a20.688,20.688,0,0,1,4.906-2.561,18.361,18.361,0,0,1,5.426-.651q11.373,0,14.585,8.6,1.3,3.474,1.3,11.373v25.524H748.77V256.738q0-6.075-1.78-8.812a6.285,6.285,0,0,0-5.686-2.734q-4.256,0-6.121,2.951t-1.867,9.724v23.614Z" fill="#231f20"/>
    <path id="Path_93" data-name="Path 93" d="M772.123,230V218.972h10.766V230Zm0,51.482V236.944h10.766v44.537Z" fill="#231f20"/>
    <path id="Path_94" data-name="Path 94" d="M795.91,281.481V219.493h10.765v19.534a18.471,18.471,0,0,1,10.245-3.038q8.768,0,12.719,4.731t3.95,15.237v6.511q0,10.593-3.95,15.28t-12.892,4.688a21.576,21.576,0,0,1-6.685-.824,16,16,0,0,1-5.209-3.256l-.608,3.125Zm27-19.794v-4.949q0-6.336-1.954-9.246a6.85,6.85,0,0,0-6.121-2.908q-8.161,0-8.161,10.245V263.6q0,10.158,8.161,10.158,4.168,0,6.121-2.909T822.911,261.687Z" fill="#231f20"/>
    <path id="Path_95" data-name="Path 95" d="M845.135,230V218.972H855.9V230Zm0,51.482V236.944H855.9v44.537Z" fill="#231f20"/>
    <path id="Path_96" data-name="Path 96" d="M870.051,245.452h-5.036v-8.508h5.036l.607-13.023h10.158v13.023h8.856v8.508h-8.856v18.492q0,5.124,1.606,6.989t6.034,1.78h1.216v8.768h-1.563q-11.2,0-14.629-3.516T870.051,262.9Z" fill="#231f20"/>
    <path id="Path_97" data-name="Path 97" d="M899.308,230V218.972h10.765V230Zm0,51.482V236.944h10.765v44.537Z" fill="#231f20"/>
    <path id="Path_98" data-name="Path 98" d="M921.619,262.555V255.87q0-10.5,4.558-15.193t14.715-4.688q10.071,0,14.629,4.688t4.558,15.193v6.685q0,10.506-4.558,15.193t-14.629,4.688q-10.157,0-14.715-4.688T921.619,262.555Zm27.7-.781v-5.209q0-6.425-1.954-9.2t-6.468-2.778q-4.515,0-6.511,2.778t-2,9.2v5.209q0,6.426,2,9.2t6.511,2.778q4.513,0,6.468-2.778T949.314,261.774Z" fill="#231f20"/>
    <path id="Path_99" data-name="Path 99" d="M971.538,281.481V236.944h8.074l.955,3.907q3.993-4.861,11.895-4.862,11.546,0,14.759,8.6,1.3,3.474,1.3,11.373v25.524H997.757V257.172q0-6.423-1.736-9.2t-5.73-2.778q-4.343,0-6.164,2.995T982.3,258.475v23.006Z" fill="#231f20"/>
    <path id="Path_100" data-name="Path 100" d="M1016.51,273.929l7.9-4.6a10.5,10.5,0,0,0,3.994,3.646,15.084,15.084,0,0,0,6.077.956q8.855,0,8.855-5.644a3.782,3.782,0,0,0-2.431-3.907,34.609,34.609,0,0,0-7.119-1.3q-8.249-1.042-11.59-3.907t-3.343-9.029q0-6.856,4.168-10.505t11.894-3.646q12.154,0,17.45,8.508l-7.987,4.6a10.455,10.455,0,0,0-3.646-3.6,10.9,10.9,0,0,0-5.036-1q-6.6,0-6.6,5.122a3.751,3.751,0,0,0,1.563,3.43q1.563,1,6.164,1.519,9.377,1.041,12.675,3.386,4.08,2.865,4.081,10.505,0,7.119-4.558,10.548t-14.108,3.429Q1021.024,282.436,1016.51,273.929Z" fill="#231f20"/>
    <path id="Path_167" data-name="Path 167" d="M164.137,258.155q.425-.766,1.277-.17l6.9,2.725c.283.115.439.27.468.469a1.087,1.087,0,0,1-.128.639,41.08,41.08,0,0,0-2.6,5.579,19.291,19.291,0,0,0-1.235,7.027A13.021,13.021,0,0,0,169.886,280a10.228,10.228,0,0,0,2.726,3.62,9.865,9.865,0,0,0,3.705,1.916,15.274,15.274,0,0,0,4,.554,11.669,11.669,0,0,0,7.879-2.6q3.022-2.6,3.024-8.39V242.227a.753.753,0,0,1,.852-.852H200a.754.754,0,0,1,.852.852v2.811a54.8,54.8,0,0,1,8.858-3.365,35.963,35.963,0,0,1,10.051-1.4,27.656,27.656,0,0,1,9.54,1.448,16.72,16.72,0,0,1,6.43,4.088,15.838,15.838,0,0,1,3.663,6.431,28.814,28.814,0,0,1,1.15,8.39,30.66,30.66,0,0,1-.979,8.6,10.109,10.109,0,0,1-3.067,4.983,11.424,11.424,0,0,1-5.451,2.342,48.017,48.017,0,0,1-8.219.6h-14.14q-2.045,0-4-.042t-3.918-.128q-.512,8.943-6.176,13.373t-14.607,4.429a27.548,27.548,0,0,1-8.3-1.193,18.45,18.45,0,0,1-6.6-3.619,16.565,16.565,0,0,1-4.386-6.091,21.635,21.635,0,0,1-1.576-8.6,30.473,30.473,0,0,1,1.448-9.2A32.921,32.921,0,0,1,164.137,258.155Zm54.257-9.369a31.146,31.146,0,0,0-9.369,1.442,63.568,63.568,0,0,0-8.177,3.137v15.266h18.228q3.576,0,5.834-.169a7.4,7.4,0,0,0,3.492-.975,4.006,4.006,0,0,0,1.661-2.5,21.011,21.011,0,0,0,.426-4.835,19.244,19.244,0,0,0-.553-4.834,7.83,7.83,0,0,0-1.959-3.561,9.053,9.053,0,0,0-3.706-2.206A19.015,19.015,0,0,0,218.394,248.786Zm-3.662-15.5a.756.756,0,0,1-.852-.86v-7.394a.756.756,0,0,1,.852-.859h8.177a.757.757,0,0,1,.851.859v7.394a.756.756,0,0,1-.851.86Z" fill="#231f20"/>
    <path id="Path_168" data-name="Path 168" d="M245.82,294.355a.753.753,0,0,1-.852-.852v-6.814a.753.753,0,0,1,.852-.852h1.874q3.577,0,5.153-1.788t1.576-5.452V242.653a.75.75,0,0,1,.844-.852h7.852a.751.751,0,0,1,.844.852v36.115q0,15.586-14.991,15.587Z" fill="#231f20"/>
    <path id="Path_169" data-name="Path 169" d="M274.78,220.081a.75.75,0,0,1,.844-.852h7.852a.75.75,0,0,1,.844.851v44.045a4.956,4.956,0,0,0,.979,3.53,4.255,4.255,0,0,0,3.109.976h2.981a3.189,3.189,0,0,1,2.556.991,5.253,5.253,0,0,1,.851,3.4q0,2.667-.809,3.4a3.809,3.809,0,0,1-2.6.731H284.66q-5.322,0-7.6-2.6t-2.278-8.134Z" fill="#231f20"/>
    <path id="Path_170" data-name="Path 170" d="M291.473,277.149a2.752,2.752,0,0,1-2.342-.859,5.657,5.657,0,0,1-.639-3.184,7.243,7.243,0,0,1,.6-3.528,2.613,2.613,0,0,1,2.385-.947H301.7a3.265,3.265,0,0,1,2.555.947,4.9,4.9,0,0,1,.852,3.27q0,2.667-.81,3.484a3.532,3.532,0,0,1-2.6.817Z" fill="#231f20"/>
    <path id="Path_171" data-name="Path 171" d="M301.694,277.149a2.752,2.752,0,0,1-2.342-.859,5.657,5.657,0,0,1-.639-3.184,7.244,7.244,0,0,1,.6-3.528,2.612,2.612,0,0,1,2.385-.947h10.222a3.265,3.265,0,0,1,2.555.947,4.9,4.9,0,0,1,.852,3.27q0,2.667-.81,3.484a3.532,3.532,0,0,1-2.6.817Z" fill="#231f20"/>
    <path id="Path_172" data-name="Path 172" d="M311.915,277.149a2.754,2.754,0,0,1-2.343-.859,5.668,5.668,0,0,1-.638-3.184,7.232,7.232,0,0,1,.6-3.528,2.612,2.612,0,0,1,2.385-.947h10.221a3.263,3.263,0,0,1,2.555.947,4.894,4.894,0,0,1,.852,3.27q0,2.667-.809,3.484a3.533,3.533,0,0,1-2.6.817Z" fill="#231f20"/>
    <path id="Path_173" data-name="Path 173" d="M322.136,277.149a2.753,2.753,0,0,1-2.343-.859,5.659,5.659,0,0,1-.638-3.184,7.232,7.232,0,0,1,.6-3.528,2.612,2.612,0,0,1,2.385-.947h10.221a3.265,3.265,0,0,1,2.555.947,4.9,4.9,0,0,1,.852,3.27q0,2.667-.809,3.484a3.536,3.536,0,0,1-2.6.817Z" fill="#231f20"/>
    <path id="Path_174" data-name="Path 174" d="M332.356,277.149a2.752,2.752,0,0,1-2.342-.859,5.657,5.657,0,0,1-.639-3.184,7.229,7.229,0,0,1,.6-3.528,2.61,2.61,0,0,1,2.384-.947h10.222a3.265,3.265,0,0,1,2.555.947,4.9,4.9,0,0,1,.852,3.27q0,2.667-.809,3.484a3.536,3.536,0,0,1-2.6.817Z" fill="#231f20"/>
    <path id="Path_175" data-name="Path 175" d="M342.577,277.149a2.752,2.752,0,0,1-2.342-.859,5.657,5.657,0,0,1-.639-3.184,7.244,7.244,0,0,1,.6-3.528,2.613,2.613,0,0,1,2.385-.947H352.8a3.267,3.267,0,0,1,2.556.947,4.9,4.9,0,0,1,.852,3.27q0,2.667-.81,3.484a3.533,3.533,0,0,1-2.6.817Z" fill="#231f20"/>
    <path id="Path_176" data-name="Path 176" d="M352.8,277.149a2.752,2.752,0,0,1-2.342-.859,5.657,5.657,0,0,1-.639-3.184,7.244,7.244,0,0,1,.6-3.528,2.612,2.612,0,0,1,2.385-.947h10.221a3.268,3.268,0,0,1,2.556.947,4.906,4.906,0,0,1,.851,3.27q0,2.667-.809,3.484a3.533,3.533,0,0,1-2.6.817Z" fill="#231f20"/>
    <path id="Path_177" data-name="Path 177" d="M363.019,277.149a2.754,2.754,0,0,1-2.343-.859,5.668,5.668,0,0,1-.638-3.184,7.232,7.232,0,0,1,.6-3.528,2.612,2.612,0,0,1,2.385-.947H373.24a3.265,3.265,0,0,1,2.555.947,4.9,4.9,0,0,1,.852,3.27q0,2.667-.809,3.484a3.536,3.536,0,0,1-2.6.817Z" fill="#231f20"/>
    <path id="Path_178" data-name="Path 178" d="M373.24,277.149a2.753,2.753,0,0,1-2.343-.859,5.659,5.659,0,0,1-.638-3.184,7.246,7.246,0,0,1,.6-3.528,2.615,2.615,0,0,1,2.386-.947h10.221a3.265,3.265,0,0,1,2.555.947,4.9,4.9,0,0,1,.852,3.27q0,2.667-.81,3.484a3.532,3.532,0,0,1-2.6.817Z" fill="#231f20"/>
    <path id="Path_179" data-name="Path 179" d="M383.46,277.149a2.752,2.752,0,0,1-2.342-.859,5.657,5.657,0,0,1-.639-3.184,7.243,7.243,0,0,1,.6-3.528,2.613,2.613,0,0,1,2.385-.947h10.222a3.265,3.265,0,0,1,2.555.947,4.9,4.9,0,0,1,.852,3.27q0,2.667-.81,3.484a3.532,3.532,0,0,1-2.6.817Z" fill="#231f20"/>
    <path id="Path_180" data-name="Path 180" d="M393.681,277.149a2.752,2.752,0,0,1-2.342-.859,5.657,5.657,0,0,1-.639-3.184,7.244,7.244,0,0,1,.6-3.528,2.613,2.613,0,0,1,2.385-.947H403.9a3.267,3.267,0,0,1,2.556.947,4.9,4.9,0,0,1,.852,3.27q0,2.667-.81,3.484a3.533,3.533,0,0,1-2.6.817Z" fill="#231f20"/>
    <path id="Path_181" data-name="Path 181" d="M403.9,277.149a2.752,2.752,0,0,1-2.342-.859,5.657,5.657,0,0,1-.639-3.184,7.244,7.244,0,0,1,.6-3.528,2.612,2.612,0,0,1,2.385-.947h10.221a3.268,3.268,0,0,1,2.556.947,4.906,4.906,0,0,1,.851,3.27q0,2.667-.809,3.484a3.535,3.535,0,0,1-2.6.817Z" fill="#231f20"/>
    <path id="Path_182" data-name="Path 182" d="M414.123,277.149a2.754,2.754,0,0,1-2.343-.859,5.657,5.657,0,0,1-.639-3.184,7.229,7.229,0,0,1,.6-3.528,2.612,2.612,0,0,1,2.385-.947h10.221a3.265,3.265,0,0,1,2.555.947,4.9,4.9,0,0,1,.852,3.27q0,2.667-.809,3.484a3.536,3.536,0,0,1-2.6.817Z" fill="#231f20"/>
    <path id="Path_183" data-name="Path 183" d="M424.344,277.149A2.753,2.753,0,0,1,422,276.29a5.657,5.657,0,0,1-.639-3.184,7.244,7.244,0,0,1,.6-3.528,2.615,2.615,0,0,1,2.386-.947h10.22a3.267,3.267,0,0,1,2.556.947,4.9,4.9,0,0,1,.852,3.27q0,2.667-.81,3.484a3.533,3.533,0,0,1-2.6.817Z" fill="#231f20"/>
    <path id="Path_184" data-name="Path 184" d="M434.564,277.149a2.752,2.752,0,0,1-2.342-.859,5.657,5.657,0,0,1-.639-3.184,7.244,7.244,0,0,1,.6-3.528,2.613,2.613,0,0,1,2.385-.947h10.221a3.268,3.268,0,0,1,2.556.947,4.906,4.906,0,0,1,.851,3.27q0,2.667-.809,3.484a3.533,3.533,0,0,1-2.6.817Z" fill="#231f20"/>
    <path id="Path_185" data-name="Path 185" d="M444.785,277.149a2.752,2.752,0,0,1-2.342-.859,5.657,5.657,0,0,1-.639-3.184,7.244,7.244,0,0,1,.6-3.528,2.613,2.613,0,0,1,2.385-.947h10.221a3.268,3.268,0,0,1,2.556.947,4.906,4.906,0,0,1,.851,3.27q0,2.667-.809,3.484a3.533,3.533,0,0,1-2.6.817Z" fill="#231f20"/>
    <path id="Path_186" data-name="Path 186" d="M455.006,277.149a2.752,2.752,0,0,1-2.342-.859,5.657,5.657,0,0,1-.639-3.184,7.232,7.232,0,0,1,.6-3.528,2.612,2.612,0,0,1,2.385-.947h10.221a3.265,3.265,0,0,1,2.555.947,4.9,4.9,0,0,1,.852,3.27q0,2.667-.809,3.484a3.535,3.535,0,0,1-2.6.817Z" fill="#231f20"/>
    <path id="Path_187" data-name="Path 187" d="M465.227,277.149a2.753,2.753,0,0,1-2.343-.859,5.657,5.657,0,0,1-.639-3.184,7.244,7.244,0,0,1,.6-3.528,2.615,2.615,0,0,1,2.386-.947h10.221a3.265,3.265,0,0,1,2.555.947,4.9,4.9,0,0,1,.852,3.27q0,2.667-.809,3.484a3.536,3.536,0,0,1-2.6.817Z" fill="#231f20"/>
    <path id="Path_188" data-name="Path 188" d="M499.3,240.268q9.793,0,14.309,3.652a11.747,11.747,0,0,1,4.515,9.6,14.076,14.076,0,0,1-.809,4.8,19.073,19.073,0,0,1-2.087,4.162,20.017,20.017,0,0,1-2.9,3.44,23.9,23.9,0,0,1-3.152,2.546,6.069,6.069,0,0,0,1.491.17h12.393a2.948,2.948,0,0,1,2.641,1.033,6.524,6.524,0,0,1,.681,3.442q0,2.411-.809,3.226a3.4,3.4,0,0,1-2.513.817H510.37a29.64,29.64,0,0,1-5.835-.553,15.7,15.7,0,0,1-5.238-2.087,19.375,19.375,0,0,1-5.963,2.087,32.777,32.777,0,0,1-5.621.553H475.447a3.33,3.33,0,0,1-2.47-.859,4.54,4.54,0,0,1-.852-3.184,7.856,7.856,0,0,1,.554-3.355q.555-1.119,2.768-1.12h9.966c.908,0,1.93-.04,3.066-.126a28.794,28.794,0,0,0,4-.637,18.943,18.943,0,0,0-1.832-4.841,19.3,19.3,0,0,0-2.6-3.609,22.312,22.312,0,0,0-3.109-2.8q-1.662-1.23-3.365-2.42a2.481,2.481,0,0,1-1.065-1.23,5.49,5.49,0,0,1-.127-1.233v-5.35q0-.935,1.618-2.038a17.6,17.6,0,0,1,4.259-2,41.026,41.026,0,0,1,6.048-1.485A40.476,40.476,0,0,1,499.3,240.268Zm1.278,25.723a23.716,23.716,0,0,0,2.768-2.044,16.417,16.417,0,0,0,2.47-2.6,14,14,0,0,0,1.746-3.024A8.48,8.48,0,0,0,508.24,255q0-3.491-2.512-4.855a13.438,13.438,0,0,0-6.431-1.362,22.783,22.783,0,0,0-5.92.681,18.108,18.108,0,0,0-3.45,1.192,23.271,23.271,0,0,1,6.687,6.431A26.113,26.113,0,0,1,500.575,265.991Z" fill="#231f20"/>
    <path id="Path_189" data-name="Path 189" d="M549.183,277.745a23.776,23.776,0,0,1-7.678-1.16,12.9,12.9,0,0,1-5.716-3.829,7.761,7.761,0,0,1-2.064,2.24,10.554,10.554,0,0,1-2.485,1.335,11.8,11.8,0,0,1-2.643.646,20.415,20.415,0,0,1-2.555.172H523.06a3.184,3.184,0,0,1-2.555-.989,5.084,5.084,0,0,1-.852-3.312q0-2.5.81-3.355a3.424,3.424,0,0,1,2.6-.862h3.322a4.923,4.923,0,0,0,1.874-.381,4.485,4.485,0,0,0,1.7-1.274,7.19,7.19,0,0,0,1.277-2.378,11.48,11.48,0,0,0,.511-3.695,10.191,10.191,0,0,1-.085-1.272v-1.275a24.554,24.554,0,0,1,1.408-8.365,14.636,14.636,0,0,1,3.672-5.6,14.222,14.222,0,0,1,5.507-3.142,24.732,24.732,0,0,1,13.919.045,14.28,14.28,0,0,1,5.592,3.237,14.865,14.865,0,0,1,3.671,5.877,26.183,26.183,0,0,1,1.324,8.858,24.884,24.884,0,0,1-1.28,8.518,14.837,14.837,0,0,1-3.583,5.707,13.883,13.883,0,0,1-5.545,3.236A23.726,23.726,0,0,1,549.183,277.745Zm-.016-28.959q-4.068,0-6.016,2.629t-1.948,7.634q0,5.43,1.948,7.8t6.016,2.374q4.152,0,6.1-2.417t1.948-7.762Q557.216,248.786,549.167,248.786Z" fill="#231f20"/>
  </g>
</svg>
