<svg xmlns="http://www.w3.org/2000/svg" width="893.531" height="70.55" viewBox="0 0 893.531 70.55"><g transform="translate(-155.62 -861.526)"><path d="M634.432,895.091H629.31v-8.508h5.122v-4.862q0-7.377,3.169-10.07t11.5-2.518h5.036v8.074h-2.778q-3.907-.085-5.036.911t-1.128,4.558v3.907h9.376v8.508H645.2v36.03H634.432Z" fill="#231f20"/><path d="M686.869,904.207v-2q0-4.167-1.823-6.077t-5.73-1.91a10.943,10.943,0,0,0-9.029,4.428l-7.467-5.3q5.9-7.727,17.538-7.727,12.066,0,15.627,7.466,1.648,3.387,1.65,11.027v27h-8.422l-.694-2.6q-3.907,3.561-12.155,3.56t-11.72-3.169q-3.474-3.168-3.473-10.635,0-7.987,3.6-11.026t13.066-3.039Zm0,7.293h-7.727q-4.167,0-5.947,1.476t-1.779,4.862q0,3.385,1.692,4.688t6.034,1.3q5.122,0,6.772-2.431.954-1.3.955-5.209Z" fill="#231f20"/><path d="M710.31,931.121V869.133h10.765v19.534a18.46,18.46,0,0,1,10.244-3.039q8.769,0,12.719,4.732t3.951,15.237v6.511q0,10.593-3.951,15.28t-12.892,4.688a21.541,21.541,0,0,1-6.685-.825A15.986,15.986,0,0,1,719.252,928l-.608,3.125Zm27-19.794v-4.949q0-6.336-1.954-9.246a6.848,6.848,0,0,0-6.12-2.909q-8.162,0-8.161,10.245v8.768q0,10.158,8.161,10.158,4.167,0,6.12-2.908T737.31,911.327Z" fill="#231f20"/><path d="M759.447,931.121V886.583H767.7L769,889.8a12.038,12.038,0,0,1,9.2-4.168,19.862,19.862,0,0,1,9.55,2.778l-4.688,8.856a9.747,9.747,0,0,0-5.9-2.344,5.5,5.5,0,0,0-5.34,3.429q-1.608,3.43-1.606,11.243v21.531Z" fill="#231f20"/><path d="M795.562,879.638V868.612h10.765v11.026Zm0,51.483V886.583h10.765v44.538Z" fill="#231f20"/><path d="M845.308,919.053l7.987,4.515q-5.209,8.51-16.93,8.508-9.463,0-13.978-5.3t-4.514-16.322V907.68q0-10.764,3.82-15.8,4.688-6.251,14.325-6.251,11.633,0,16.5,8.6l-8.075,4.515a10.941,10.941,0,0,0-3.342-3.517,8.19,8.19,0,0,0-4.211-1,6.946,6.946,0,0,0-6.251,3.039q-2,3.039-2,9.463V911.5q0,11.895,8.508,11.894A9.481,9.481,0,0,0,845.308,919.053Z" fill="#231f20"/><path d="M886.024,904.207v-2q0-4.167-1.824-6.077t-5.73-1.91a10.942,10.942,0,0,0-9.028,4.428l-7.467-5.3q5.9-7.727,17.537-7.727,12.067,0,15.627,7.466,1.648,3.387,1.65,11.027v27h-8.421l-.7-2.6q-3.906,3.561-12.155,3.56t-11.72-3.169q-3.473-3.168-3.473-10.635,0-7.987,3.6-11.026t13.066-3.039Zm0,7.293H878.3q-4.168,0-5.947,1.476t-1.78,4.862q0,3.385,1.693,4.688t6.034,1.3q5.121,0,6.772-2.431.954-1.3.955-5.209Z" fill="#231f20"/><path d="M910.679,895.091h-5.035v-8.508h5.035l.608-13.022h10.158v13.022H930.3v8.508h-8.855v18.493q0,5.124,1.606,6.989t6.034,1.779H930.3v8.769h-1.562q-11.2,0-14.63-3.516t-3.429-15.063Z" fill="#231f20"/><path d="M939.936,879.638V868.612H950.7v11.026Zm0,51.483V886.583H950.7v44.538Z" fill="#231f20"/><path d="M962.247,912.194v-6.685q0-10.5,4.558-15.193t14.716-4.688q10.071,0,14.629,4.688t4.558,15.193v6.685q0,10.506-4.558,15.194t-14.629,4.688q-10.158,0-14.716-4.688T962.247,912.194Zm27.7-.781V906.2q0-6.423-1.953-9.2t-6.468-2.778q-4.515,0-6.512,2.778t-2,9.2v5.209q0,6.426,2,9.2t6.512,2.778q4.514,0,6.468-2.778T989.942,911.413Z" fill="#231f20"/><path d="M1012.167,931.121V886.583h8.074l.955,3.907q3.992-4.861,11.894-4.862,11.546,0,14.759,8.6,1.3,3.474,1.3,11.374v25.524h-10.765V906.812q0-6.425-1.736-9.2t-5.73-2.778q-4.343,0-6.164,2.995t-1.824,10.288v23.007Z" fill="#231f20"/><path d="M172.91,931.711a43.654,43.654,0,0,1-7.367-.553,15.238,15.238,0,0,1-5.409-1.917,8.965,8.965,0,0,1-3.364-3.62,12.416,12.416,0,0,1-1.15-5.664,11.3,11.3,0,0,1,1.447-5.963,13.237,13.237,0,0,1,3.663-3.96,18.154,18.154,0,0,1,4.983-2.47q2.768-.9,5.409-1.576a20.465,20.465,0,0,0-1.831-5.026,19.643,19.643,0,0,0-2.641-3.79,24.387,24.387,0,0,0-3.194-2.981q-1.7-1.32-3.492-2.6a2.39,2.39,0,0,1-1.022-1.192,4.574,4.574,0,0,1-.171-1.278v-5.366q0-1.105,1.661-2.215a18.4,18.4,0,0,1,4.344-2,36.136,36.136,0,0,1,6.175-1.406,49.449,49.449,0,0,1,7.155-.511,32.111,32.111,0,0,1,6.516.68,19.728,19.728,0,0,1,5.92,2.208,12.622,12.622,0,0,1,4.3,4.076,11.273,11.273,0,0,1,1.66,6.284,14.142,14.142,0,0,1-.766,4.671,18.152,18.152,0,0,1-2,4.076,20.372,20.372,0,0,1-2.81,3.4,28.168,28.168,0,0,1-3.11,2.633q.852.086,1.747.212a12.212,12.212,0,0,0,1.746.127h10.732a3.448,3.448,0,0,1,2.555.861,4.381,4.381,0,0,1,.852,3.1,5.844,5.844,0,0,1-.809,3.527,3.1,3.1,0,0,1-2.6,1.033H188.924a25.472,25.472,0,0,1-5.281-.6,14.6,14.6,0,0,1-5.026-2.044,39.252,39.252,0,0,1-4.727,1.533,34.313,34.313,0,0,0-4.259,1.363,10.464,10.464,0,0,0-3.109,1.831,3.633,3.633,0,0,0-1.192,2.854,2.922,2.922,0,0,0,1.874,2.981q1.872.766,6.9.767h5.877a.753.753,0,0,1,.852.852v6.813a.753.753,0,0,1-.852.852Zm6.048-28.364a21.123,21.123,0,0,0,2.725-2.044,19.43,19.43,0,0,0,2.471-2.6,11.989,11.989,0,0,0,1.746-3.024,8.958,8.958,0,0,0,.639-3.321q0-3.492-2.47-4.856a13.386,13.386,0,0,0-6.474-1.362,22.789,22.789,0,0,0-5.92.681,15.373,15.373,0,0,0-3.364,1.193,23.251,23.251,0,0,1,6.686,6.43A26.094,26.094,0,0,1,178.958,903.347Z" fill="#231f20"/><path d="M220.534,910.118a6.532,6.532,0,0,1-3.588,3.442,18.121,18.121,0,0,1-6.473.946h-7.921a3.56,3.56,0,0,1-2.556-.818q-.851-.816-.851-3.226a5.639,5.639,0,0,1,.809-3.484,3.165,3.165,0,0,1,2.6-.99h5.536a4.759,4.759,0,0,0,2.342-.467,2.766,2.766,0,0,0,1.193-1.443,8.357,8.357,0,0,0,.468-2.547q.084-1.572.086-3.864V880.006a.66.66,0,0,1,.464-.679,2.825,2.825,0,0,1,.97-.17h7.261a.749.749,0,0,1,.844.849v20.718a4.493,4.493,0,0,0,1.917,3.905,8.735,8.735,0,0,0,5.153,1.359h1.448a3.264,3.264,0,0,1,2.555.946,4.74,4.74,0,0,1,.852,3.184,5.439,5.439,0,0,1-.809,3.442,3.248,3.248,0,0,1-2.6.946,18.435,18.435,0,0,1-5.792-.818A6.83,6.83,0,0,1,220.534,910.118Zm-13.213,20.741a.756.756,0,0,1-.851-.859v-7.4a.756.756,0,0,1,.851-.86h7.155a.757.757,0,0,1,.852.86V930a.757.757,0,0,1-.852.859Zm11.073,0a.756.756,0,0,1-.852-.859v-7.4a.757.757,0,0,1,.852-.86h7.155a.757.757,0,0,1,.852.86V930a.757.757,0,0,1-.852.859Z" fill="#231f20"/><path d="M248.546,900.724a4.493,4.493,0,0,0,1.917,3.905,8.737,8.737,0,0,0,5.153,1.359h1.448a3.264,3.264,0,0,1,2.555.946,4.74,4.74,0,0,1,.852,3.184,5.439,5.439,0,0,1-.809,3.442,3.245,3.245,0,0,1-2.6.946,18.435,18.435,0,0,1-5.792-.818,6.832,6.832,0,0,1-3.907-3.57,6.573,6.573,0,0,1-3.505,3.442,17.4,17.4,0,0,1-6.386.946h-6.73a4.713,4.713,0,0,1-2.555-.559q-.851-.56-.852-2.453a8.694,8.694,0,0,1,.81-3.828,2.769,2.769,0,0,1,2.682-1.678h4.089a5.2,5.2,0,0,0,2.3-.425,2.531,2.531,0,0,0,1.235-1.359,7.751,7.751,0,0,0,.468-2.462q.084-1.527.086-3.736v-18a.748.748,0,0,1,.844-.849H247.7a.749.749,0,0,1,.843.849Zm-8.773-30.085a.756.756,0,0,1-.852-.859v-7.394a.757.757,0,0,1,.852-.86h8.177a.757.757,0,0,1,.852.86v7.394a.756.756,0,0,1-.852.859Z" fill="#231f20"/><path d="M256.723,914.506a2.749,2.749,0,0,1-2.342-.86,5.655,5.655,0,0,1-.639-3.184,7.246,7.246,0,0,1,.6-3.528,2.612,2.612,0,0,1,2.385-.946h10.221a3.268,3.268,0,0,1,2.556.946,4.906,4.906,0,0,1,.851,3.27q0,2.667-.809,3.484a3.533,3.533,0,0,1-2.6.818Z" fill="#231f20"/><path d="M266.944,914.506a2.749,2.749,0,0,1-2.342-.86,5.655,5.655,0,0,1-.639-3.184,7.234,7.234,0,0,1,.6-3.528,2.612,2.612,0,0,1,2.385-.946h10.221a3.264,3.264,0,0,1,2.555.946,4.9,4.9,0,0,1,.852,3.27q0,2.667-.809,3.484a3.536,3.536,0,0,1-2.6.818Z" fill="#231f20"/><path d="M277.165,914.506a2.751,2.751,0,0,1-2.343-.86,5.657,5.657,0,0,1-.638-3.184,7.249,7.249,0,0,1,.6-3.528,2.615,2.615,0,0,1,2.386-.946h10.221a3.264,3.264,0,0,1,2.555.946,4.9,4.9,0,0,1,.852,3.27q0,2.667-.809,3.484a3.536,3.536,0,0,1-2.6.818Z" fill="#231f20"/><path d="M287.386,914.506a2.75,2.75,0,0,1-2.343-.86,5.655,5.655,0,0,1-.639-3.184,7.246,7.246,0,0,1,.6-3.528,2.614,2.614,0,0,1,2.386-.946h10.221a3.264,3.264,0,0,1,2.555.946,4.9,4.9,0,0,1,.852,3.27q0,2.667-.81,3.484a3.532,3.532,0,0,1-2.6.818Z" fill="#231f20"/><path d="M297.606,914.506a2.749,2.749,0,0,1-2.342-.86,5.655,5.655,0,0,1-.639-3.184,7.246,7.246,0,0,1,.6-3.528,2.613,2.613,0,0,1,2.385-.946h10.221a3.266,3.266,0,0,1,2.556.946,4.9,4.9,0,0,1,.852,3.27q0,2.667-.81,3.484a3.533,3.533,0,0,1-2.6.818Z" fill="#231f20"/><path d="M307.827,914.506a2.749,2.749,0,0,1-2.342-.86,5.655,5.655,0,0,1-.639-3.184,7.246,7.246,0,0,1,.6-3.528,2.612,2.612,0,0,1,2.385-.946h10.221a3.268,3.268,0,0,1,2.556.946,4.906,4.906,0,0,1,.851,3.27q0,2.667-.809,3.484a3.533,3.533,0,0,1-2.6.818Z" fill="#231f20"/><path d="M316.344,914.506a2.749,2.749,0,0,1-2.342-.86,5.655,5.655,0,0,1-.639-3.184,7.246,7.246,0,0,1,.6-3.528,2.613,2.613,0,0,1,2.385-.946h10.222a3.264,3.264,0,0,1,2.555.946,4.9,4.9,0,0,1,.852,3.27q0,2.667-.81,3.484a3.532,3.532,0,0,1-2.6.818Z" fill="#231f20"/><path d="M326.565,914.506a2.748,2.748,0,0,1-2.342-.86,5.655,5.655,0,0,1-.639-3.184,7.234,7.234,0,0,1,.6-3.528,2.612,2.612,0,0,1,2.385-.946h10.221a3.263,3.263,0,0,1,2.555.946,4.894,4.894,0,0,1,.852,3.27q0,2.667-.809,3.484a3.533,3.533,0,0,1-2.6.818Z" fill="#231f20"/><path d="M336.786,914.506a2.751,2.751,0,0,1-2.343-.86,5.665,5.665,0,0,1-.638-3.184,7.234,7.234,0,0,1,.6-3.528,2.612,2.612,0,0,1,2.385-.946h10.221a3.264,3.264,0,0,1,2.555.946,4.9,4.9,0,0,1,.852,3.27q0,2.667-.809,3.484a3.533,3.533,0,0,1-2.6.818Z" fill="#231f20"/><path d="M347.006,914.506a2.749,2.749,0,0,1-2.342-.86,5.657,5.657,0,0,1-.638-3.184,7.234,7.234,0,0,1,.6-3.528,2.61,2.61,0,0,1,2.384-.946h10.222a3.264,3.264,0,0,1,2.555.946,4.9,4.9,0,0,1,.852,3.27q0,2.667-.809,3.484a3.536,3.536,0,0,1-2.6.818Z" fill="#231f20"/><path d="M357.227,914.506a2.749,2.749,0,0,1-2.342-.86,5.655,5.655,0,0,1-.639-3.184,7.232,7.232,0,0,1,.6-3.528,2.61,2.61,0,0,1,2.384-.946h10.222a3.264,3.264,0,0,1,2.555.946,4.9,4.9,0,0,1,.852,3.27q0,2.667-.809,3.484a3.536,3.536,0,0,1-2.6.818Z" fill="#231f20"/><path d="M367.448,914.506a2.749,2.749,0,0,1-2.342-.86,5.655,5.655,0,0,1-.639-3.184,7.246,7.246,0,0,1,.6-3.528,2.613,2.613,0,0,1,2.385-.946h10.221a3.266,3.266,0,0,1,2.556.946,4.9,4.9,0,0,1,.851,3.27q0,2.667-.809,3.484a3.533,3.533,0,0,1-2.6.818Z" fill="#231f20"/><path d="M377.669,914.506a2.752,2.752,0,0,1-2.343-.86,5.665,5.665,0,0,1-.638-3.184,7.234,7.234,0,0,1,.6-3.528,2.612,2.612,0,0,1,2.385-.946H387.89a3.264,3.264,0,0,1,2.555.946,4.9,4.9,0,0,1,.852,3.27q0,2.667-.809,3.484a3.536,3.536,0,0,1-2.6.818Z" fill="#231f20"/><path d="M387.89,914.506a2.75,2.75,0,0,1-2.343-.86,5.657,5.657,0,0,1-.638-3.184,7.234,7.234,0,0,1,.6-3.528,2.612,2.612,0,0,1,2.385-.946h10.221a3.264,3.264,0,0,1,2.555.946,4.9,4.9,0,0,1,.852,3.27q0,2.667-.809,3.484a3.536,3.536,0,0,1-2.6.818Z" fill="#231f20"/><path d="M398.11,914.506a2.749,2.749,0,0,1-2.342-.86,5.655,5.655,0,0,1-.639-3.184,7.246,7.246,0,0,1,.6-3.528,2.613,2.613,0,0,1,2.385-.946h10.222a3.264,3.264,0,0,1,2.555.946,4.9,4.9,0,0,1,.852,3.27q0,2.667-.81,3.484a3.532,3.532,0,0,1-2.6.818Z" fill="#231f20"/><path d="M408.331,914.506a2.749,2.749,0,0,1-2.342-.86,5.655,5.655,0,0,1-.639-3.184,7.246,7.246,0,0,1,.6-3.528,2.613,2.613,0,0,1,2.385-.946h10.222a3.264,3.264,0,0,1,2.555.946,4.9,4.9,0,0,1,.852,3.27q0,2.667-.81,3.484a3.532,3.532,0,0,1-2.6.818Z" fill="#231f20"/><path d="M418.552,914.506a2.749,2.749,0,0,1-2.342-.86,5.655,5.655,0,0,1-.639-3.184,7.246,7.246,0,0,1,.6-3.528,2.612,2.612,0,0,1,2.385-.946h10.221a3.266,3.266,0,0,1,2.556.946,4.9,4.9,0,0,1,.851,3.27q0,2.667-.809,3.484a3.533,3.533,0,0,1-2.6.818Z" fill="#231f20"/><path d="M428.773,914.506a2.751,2.751,0,0,1-2.343-.86,5.657,5.657,0,0,1-.638-3.184,7.234,7.234,0,0,1,.6-3.528,2.612,2.612,0,0,1,2.385-.946h10.221a3.264,3.264,0,0,1,2.555.946,4.9,4.9,0,0,1,.852,3.27q0,2.667-.809,3.484a3.536,3.536,0,0,1-2.6.818Z" fill="#231f20"/><path d="M438.994,914.506a2.75,2.75,0,0,1-2.343-.86,5.655,5.655,0,0,1-.639-3.184,7.231,7.231,0,0,1,.6-3.528,2.612,2.612,0,0,1,2.385-.946h10.221a3.264,3.264,0,0,1,2.555.946,4.9,4.9,0,0,1,.852,3.27q0,2.667-.809,3.484a3.536,3.536,0,0,1-2.6.818Z" fill="#231f20"/><path d="M449.214,914.506a2.749,2.749,0,0,1-2.342-.86,5.655,5.655,0,0,1-.639-3.184,7.246,7.246,0,0,1,.6-3.528,2.613,2.613,0,0,1,2.385-.946h10.221a3.266,3.266,0,0,1,2.556.946,4.9,4.9,0,0,1,.852,3.27q0,2.667-.81,3.484a3.533,3.533,0,0,1-2.6.818Z" fill="#231f20"/><path d="M459.435,914.506a2.749,2.749,0,0,1-2.342-.86,5.655,5.655,0,0,1-.639-3.184,7.246,7.246,0,0,1,.6-3.528,2.613,2.613,0,0,1,2.385-.946h10.221a3.268,3.268,0,0,1,2.556.946,4.906,4.906,0,0,1,.851,3.27q0,2.667-.809,3.484a3.533,3.533,0,0,1-2.6.818Z" fill="#231f20"/><path d="M469.656,914.506a2.749,2.749,0,0,1-2.342-.86,5.655,5.655,0,0,1-.639-3.184,7.234,7.234,0,0,1,.6-3.528,2.612,2.612,0,0,1,2.385-.946h10.221a3.268,3.268,0,0,1,2.556.946,4.906,4.906,0,0,1,.851,3.27q0,2.667-.809,3.484a3.534,3.534,0,0,1-2.6.818Z" fill="#231f20"/><path d="M497.594,882.394a54.91,54.91,0,0,1,8.876-3.364,36.118,36.118,0,0,1,10.073-1.406,27.927,27.927,0,0,1,9.517,1.444,16.707,16.707,0,0,1,6.488,4.076,15.8,15.8,0,0,1,3.67,6.413,28.6,28.6,0,0,1,1.153,8.363c0,.567-.015,1.09-.043,1.572s-.042.891-.042,1.231a4.737,4.737,0,0,0,1.959,3.906,8.535,8.535,0,0,0,5.111,1.359H545.8a3.268,3.268,0,0,1,2.556.946,4.746,4.746,0,0,1,.851,3.184,5.439,5.439,0,0,1-.809,3.442,3.245,3.245,0,0,1-2.6.946,17.668,17.668,0,0,1-6.431-1.076,7.393,7.393,0,0,1-4.13-4.345A8.363,8.363,0,0,1,530,913.517a33.866,33.866,0,0,1-9.071.989h-16.78q-1.363,0-2.811-.043t-2.811-.213q-1.363-.169-2.6-.426a6.639,6.639,0,0,1-2.086-.767,7.183,7.183,0,0,1-3.024,1.193,25.849,25.849,0,0,1-3.876.256h-7.069a3.561,3.561,0,0,1-2.556-.818q-.849-.816-.851-3.226,0-2.752.809-3.613a3.425,3.425,0,0,1,2.6-.861H483.8a3.9,3.9,0,0,0,2.47-.679,3.816,3.816,0,0,0,1.235-1.91,11.672,11.672,0,0,0,.469-2.842q.082-1.614.085-3.4V879.668a.749.749,0,0,1,.843-.852h7.853a.751.751,0,0,1,.844.852Zm17.6,3.748a31.3,31.3,0,0,0-9.4,1.443,63.5,63.5,0,0,0-8.2,3.137v11.534c0,.679-.03,1.33-.086,1.951a16.954,16.954,0,0,1-.255,1.781h18.535q3.673,0,5.937-.127a7.16,7.16,0,0,0,3.5-.933,4.031,4.031,0,0,0,1.666-2.544,21.533,21.533,0,0,0,.427-4.878,19.134,19.134,0,0,0-.555-4.833,7.823,7.823,0,0,0-1.964-3.562,9.074,9.074,0,0,0-3.716-2.205A19.094,19.094,0,0,0,515.191,886.142Z" fill="#231f20"/><path d="M545.8,914.506a3.558,3.558,0,0,1-2.556-.818,4.362,4.362,0,0,1-.851-3.141,5.846,5.846,0,0,1,.809-3.526,3.1,3.1,0,0,1,2.6-1.033h5.536a4.262,4.262,0,0,0,3.109-.976,4.943,4.943,0,0,0,.98-3.524V880.006a.748.748,0,0,1,.843-.849h7.852a.75.75,0,0,1,.844.852v23.764q0,5.538-2.279,8.135t-7.6,2.6Zm5.281-43.867a.756.756,0,0,1-.852-.859v-7.394a.756.756,0,0,1,.852-.86h7.154a.757.757,0,0,1,.852.86v7.394a.756.756,0,0,1-.852.859Zm11.072,0a.756.756,0,0,1-.852-.859v-7.394a.757.757,0,0,1,.852-.86h7.155a.757.757,0,0,1,.852.86v7.394a.756.756,0,0,1-.852.859Z" fill="#231f20"/></g></svg>