<svg xmlns="http://www.w3.org/2000/svg" width="1030.056" height="85.01" viewBox="0 0 1030.056 85.01">
  <g id="galleries" transform="translate(-81.777 -309.679)">
    <path id="Path_101" data-name="Path 101" d="M658.134,374.374l.086-2.17a17.514,17.514,0,0,1-10.591,3.038q-8.51,0-12.459-4.775t-3.95-15.193v-6.511q0-10.5,3.993-15.237t12.763-4.731q7.465,0,11.633,3.906l.956-2.951H668.9v43.409q0,10.938-4.9,16.235t-15.063,5.295q-11.9,0-16.756-8.421l7.987-4.6a10.386,10.386,0,0,0,3.516,3.646,10.037,10.037,0,0,0,4.905,1.042q4.861,0,7.163-2.822T658.134,374.374ZM641.9,349.544v4.948q0,6.252,1.954,9.16t6.121,2.908q8.158,0,8.161-10.157v-8.769q0-10.244-8.161-10.245a6.852,6.852,0,0,0-6.121,2.909Q641.9,343.208,641.9,349.544Z" fill="#231f20"/>
    <path id="Path_102" data-name="Path 102" d="M704.667,347.374v-2q0-4.169-1.824-6.078t-5.73-1.91a10.942,10.942,0,0,0-9.028,4.428l-7.467-5.3q5.9-7.725,17.537-7.726,12.067,0,15.627,7.466,1.65,3.386,1.65,11.026v27h-8.421l-.7-2.6q-3.906,3.561-12.154,3.559t-11.721-3.169q-3.473-3.168-3.472-10.635,0-7.986,3.6-11.026t13.066-3.038Zm0,7.292H696.94q-4.167,0-5.947,1.476T689.213,361q0,3.385,1.693,4.688t6.034,1.3q5.121,0,6.772-2.431.954-1.3.955-5.209Z" fill="#231f20"/>
    <path id="Path_103" data-name="Path 103" d="M727.934,312.3H738.7V356.75q-.087,5.035,1.563,6.945t6.077,1.824h1.65v8.768h-2.084q-10.94,0-14.455-3.646t-3.516-14.933Z" fill="#231f20"/>
    <path id="Path_104" data-name="Path 104" d="M754.586,312.3h10.766V356.75q-.087,5.035,1.562,6.945t6.078,1.824h1.649v8.768h-2.083q-10.939,0-14.456-3.646t-3.516-14.933Z" fill="#231f20"/>
    <path id="Path_105" data-name="Path 105" d="M790.789,354.666v1.389q0,10.767,9.636,10.766a10.681,10.681,0,0,0,9.2-4.6l7.9,4.6a16.181,16.181,0,0,1-7.032,6.468q-4.256,1.953-11.287,1.953-10.073,0-14.672-5.079t-4.6-16.278v-3.126q0-11.633,4.47-16.8t14.63-5.165q10.156,0,14.628,5.165t4.472,16.8v3.907ZM790.7,347.2h17.277v-.955q0-4.6-2.214-6.989t-6.468-2.388a8.225,8.225,0,0,0-6.338,2.431q-2.259,2.433-2.257,6.946Z" fill="#231f20"/>
    <path id="Path_106" data-name="Path 106" d="M828.9,374.287V329.75h8.248l1.3,3.212a12.038,12.038,0,0,1,9.2-4.167,19.854,19.854,0,0,1,9.55,2.778l-4.688,8.855a9.748,9.748,0,0,0-5.9-2.344,5.493,5.493,0,0,0-5.339,3.429q-1.608,3.432-1.607,11.243v21.531Z" fill="#231f20"/>
    <path id="Path_107" data-name="Path 107" d="M865.016,322.8V311.778h10.765V322.8Zm0,51.483V329.75h10.765v44.537Z" fill="#231f20"/>
    <path id="Path_108" data-name="Path 108" d="M898.179,354.666v1.389q0,10.767,9.636,10.766a10.681,10.681,0,0,0,9.2-4.6l7.9,4.6a16.182,16.182,0,0,1-7.032,6.468q-4.256,1.953-11.287,1.953-10.072,0-14.672-5.079t-4.6-16.278v-3.126q0-11.633,4.47-16.8t14.63-5.165q10.156,0,14.628,5.165t4.472,16.8v3.907Zm-.087-7.466h17.277v-.955q0-4.6-2.214-6.989t-6.468-2.388a8.225,8.225,0,0,0-6.338,2.431q-2.259,2.433-2.257,6.946Z" fill="#231f20"/>
    <path id="Path_109" data-name="Path 109" d="M933.079,366.734l7.9-4.6a10.524,10.524,0,0,0,3.994,3.646,15.108,15.108,0,0,0,6.077.955q8.856,0,8.856-5.643a3.783,3.783,0,0,0-2.431-3.907,34.622,34.622,0,0,0-7.12-1.3q-8.248-1.042-11.59-3.907t-3.342-9.029q0-6.858,4.167-10.505t11.894-3.646q12.154,0,17.45,8.508l-7.987,4.6a10.473,10.473,0,0,0-3.646-3.6,10.915,10.915,0,0,0-5.036-1q-6.6,0-6.6,5.122a3.749,3.749,0,0,0,1.563,3.429q1.563,1,6.164,1.52,9.377,1.041,12.676,3.385,4.078,2.867,4.08,10.506,0,7.119-4.558,10.548t-14.108,3.429Q937.593,375.242,933.079,366.734Z" fill="#231f20"/>
    <path id="Path_190" data-name="Path 190" d="M186.192,349.206q.426-.766,1.278-.171l6.9,2.726c.284.115.44.27.469.469a1.083,1.083,0,0,1-.128.638,41.313,41.313,0,0,0-2.6,5.579,19.32,19.32,0,0,0-1.235,7.027,13.018,13.018,0,0,0,1.065,5.579,10.232,10.232,0,0,0,2.726,3.621,9.865,9.865,0,0,0,3.705,1.916,15.271,15.271,0,0,0,4,.553,11.669,11.669,0,0,0,7.879-2.6q3.022-2.6,3.024-8.39V333.278a.753.753,0,0,1,.851-.852h7.922a.753.753,0,0,1,.851.852v2.811a54.811,54.811,0,0,1,8.859-3.365,35.958,35.958,0,0,1,10.051-1.4,27.66,27.66,0,0,1,9.54,1.448,16.731,16.731,0,0,1,6.431,4.088,15.859,15.859,0,0,1,3.662,6.431,28.8,28.8,0,0,1,1.15,8.39,30.617,30.617,0,0,1-.98,8.6,10.109,10.109,0,0,1-3.066,4.983A11.434,11.434,0,0,1,253.1,367.6a48.018,48.018,0,0,1-8.22.6H230.74q-2.045,0-4-.042t-3.919-.128q-.51,8.943-6.175,13.372t-14.608,4.43a27.546,27.546,0,0,1-8.3-1.193,18.428,18.428,0,0,1-6.6-3.62,16.542,16.542,0,0,1-4.386-6.09,21.619,21.619,0,0,1-1.576-8.6,30.466,30.466,0,0,1,1.448-9.2A32.959,32.959,0,0,1,186.192,349.206Zm54.258-9.37a31.147,31.147,0,0,0-9.369,1.443,63.591,63.591,0,0,0-8.178,3.137v15.266h18.228q3.578,0,5.835-.169a7.431,7.431,0,0,0,3.492-.975,4.01,4.01,0,0,0,1.661-2.5,21.011,21.011,0,0,0,.426-4.835,19.19,19.19,0,0,0-.554-4.834,7.838,7.838,0,0,0-1.959-3.562,9.059,9.059,0,0,0-3.705-2.2A19.012,19.012,0,0,0,240.45,339.836Zm-3.663-15.5a.756.756,0,0,1-.852-.86V316.08a.757.757,0,0,1,.852-.86h8.177a.758.758,0,0,1,.852.86v7.394a.757.757,0,0,1-.852.86Z" fill="#231f20"/>
    <path id="Path_191" data-name="Path 191" d="M276.479,333.7a.75.75,0,0,1,.844-.852h7.852a.748.748,0,0,1,.843.849v20.718a4.5,4.5,0,0,0,1.917,3.9,8.747,8.747,0,0,0,5.153,1.358h1.448a3.268,3.268,0,0,1,2.556.947,4.743,4.743,0,0,1,.851,3.183,5.437,5.437,0,0,1-.809,3.442,3.242,3.242,0,0,1-2.6.946,20.985,20.985,0,0,1-4.983-.516,6.431,6.431,0,0,1-3.535-2.322v1.62a37.976,37.976,0,0,1-.759,8.062,14.748,14.748,0,0,1-2.492,5.757,10.507,10.507,0,0,1-4.606,3.453,19.293,19.293,0,0,1-7.133,1.152h-3.152a.753.753,0,0,1-.852-.852V377.74a.753.753,0,0,1,.852-.852h1.874a7.248,7.248,0,0,0,3.833-.852,4.96,4.96,0,0,0,2-2.512,13.227,13.227,0,0,0,.766-4q.127-2.341.128-5.409Z" fill="#231f20"/>
    <path id="Path_192" data-name="Path 192" d="M302.883,359.682a16.783,16.783,0,0,1-2.81-4.586,16.383,16.383,0,0,1-1.108-6.368,20.883,20.883,0,0,1,.937-6.073,15.179,15.179,0,0,1,3.109-5.6,16.451,16.451,0,0,1,5.707-4.118,20.978,20.978,0,0,1,8.731-1.614,21.557,21.557,0,0,1,9.539,1.916,16.894,16.894,0,0,1,6.133,4.813.805.805,0,0,1-.255,1.192l-4.6,4.77a.719.719,0,0,1-1.193-.085,11.816,11.816,0,0,0-9.029-4.089,8.636,8.636,0,0,0-6.686,2.545,9.749,9.749,0,0,0-2.342,6.87,10.718,10.718,0,0,0,.809,4.368,12.935,12.935,0,0,0,1.874,3.1,9.53,9.53,0,0,0,2.215,1.993,10.8,10.8,0,0,0,1.831.975h18.483a.758.758,0,0,1,.852.86v6.8a.757.757,0,0,1-.852.86H294.621a3.184,3.184,0,0,1-2.555-.989,5.084,5.084,0,0,1-.852-3.312q0-2.5.809-3.355a3.426,3.426,0,0,1,2.6-.862Z" fill="#231f20"/>
    <path id="Path_193" data-name="Path 193" d="M415.443,358.707a4.945,4.945,0,0,0,.979-3.524V333.7a.752.752,0,0,1,.852-.849h7.836a.754.754,0,0,1,.852.852v23.764q0,5.538-2.3,8.134t-7.836,2.6h-42.5q-5.367,0-7.666-2.623t-2.3-8.194V339.07a.753.753,0,0,1,.852-.852h7.836a.754.754,0,0,1,.852.852v16.1q0,2.556.98,3.535a4.248,4.248,0,0,0,3.108.979h35.264A4.4,4.4,0,0,0,415.443,358.707Zm-29.6-29.347a.757.757,0,0,1-.852-.86v-7.395a.756.756,0,0,1,.852-.859H393a.756.756,0,0,1,.851.859V328.5a.756.756,0,0,1-.851.86Zm11.073,0a.756.756,0,0,1-.852-.86v-7.395a.756.756,0,0,1,.852-.859h7.155a.757.757,0,0,1,.852.859V328.5a.757.757,0,0,1-.852.86Z" fill="#231f20"/>
    <path id="Path_194" data-name="Path 194" d="M458.84,359.682h8.916a4.3,4.3,0,0,0,3.129-.976,4.929,4.929,0,0,0,.987-3.53V311.13a.748.748,0,0,1,.843-.85h7.852a.75.75,0,0,1,.844.852v46.336q0,5.538-2.279,8.134t-7.6,2.6H434.138a.756.756,0,0,1-.852-.86v-6.8a.757.757,0,0,1,.852-.86H449.3V323.056a.749.749,0,0,1,.843-.851H458a.75.75,0,0,1,.844.851Z" fill="#231f20"/>
    <path id="Path_195" data-name="Path 195" d="M492.568,311.132a.75.75,0,0,1,.844-.852h7.852a.749.749,0,0,1,.844.85v44.046a4.956,4.956,0,0,0,.979,3.53,4.257,4.257,0,0,0,3.11.976h2.981a3.188,3.188,0,0,1,2.555.991,5.253,5.253,0,0,1,.851,3.4q0,2.665-.809,3.4a3.808,3.808,0,0,1-2.6.731h-6.73q-5.32,0-7.6-2.6t-2.278-8.134Z" fill="#231f20"/>
    <path id="Path_196" data-name="Path 196" d="M526.978,336.089a54.923,54.923,0,0,1,8.877-3.365,36.116,36.116,0,0,1,10.072-1.4,27.84,27.84,0,0,1,9.517,1.448,16.731,16.731,0,0,1,6.489,4.088,15.85,15.85,0,0,1,3.67,6.431,28.77,28.77,0,0,1,1.153,8.39,32.145,32.145,0,0,1-.895,8.347,10.438,10.438,0,0,1-2.9,5.068,10.554,10.554,0,0,1-5.153,2.47,39.263,39.263,0,0,1-7.665.639H534.218q-1.363,0-3.024-.042t-3.236-.213q-1.578-.171-2.854-.426a4.143,4.143,0,0,1-1.874-.767,6.98,6.98,0,0,1-3.279,1.235,37.568,37.568,0,0,1-4.3.213h-6.389a3.557,3.557,0,0,1-2.555-.817q-.85-.816-.852-3.226,0-2.753.81-3.613a3.424,3.424,0,0,1,2.6-.862h4.43a4.853,4.853,0,0,0,2.129-.381,2.448,2.448,0,0,0,1.15-1.23,5.741,5.741,0,0,0,.426-2.164q.042-1.316.042-3.184v-19.36a.75.75,0,0,1,.844-.852h7.853a.75.75,0,0,1,.843.852Zm17.6,3.747a31.326,31.326,0,0,0-9.4,1.443,63.815,63.815,0,0,0-8.2,3.137V355.95q0,1.018-.085,1.952a16.65,16.65,0,0,1-.256,1.78h18.536q3.674,0,5.937-.126a7.156,7.156,0,0,0,3.5-.933,4.027,4.027,0,0,0,1.667-2.544,21.539,21.539,0,0,0,.427-4.878,19.142,19.142,0,0,0-.555-4.834,7.82,7.82,0,0,0-1.965-3.562,9.085,9.085,0,0,0-3.715-2.2A19.132,19.132,0,0,0,544.575,339.836Z" fill="#231f20"/>
    <rect id="Rectangle_18" data-name="Rectangle 18" width="1030.056" height="78.733" transform="translate(81.777 309.679)" fill="none"/>
  </g>
</svg>
