<svg xmlns="http://www.w3.org/2000/svg" width="1030.056" height="99.747" viewBox="0 0 1030.056 99.747">
  <g id="interactive" transform="translate(-81.777 -757.679)">
    <path id="Path_135" data-name="Path 135" d="M632.7,786.832V775.806h10.765v11.026Zm0,51.483V793.778h10.765v44.537Z" fill="#231f20"/>
    <path id="Path_136" data-name="Path 136" d="M656.4,838.315V793.778h8.074l.955,3.906q3.992-4.86,11.894-4.861,11.546,0,14.759,8.6,1.3,3.472,1.3,11.373v25.524H682.615V814.006q0-6.423-1.736-9.2t-5.73-2.778q-4.342,0-6.164,2.995t-1.824,10.287v23.007Z" fill="#231f20"/>
    <path id="Path_137" data-name="Path 137" d="M707.1,802.286h-5.036v-8.508H707.1l.608-13.023h10.158v13.023h8.855v8.508h-8.855v18.492q0,5.124,1.606,6.989t6.033,1.78h1.216v8.768h-1.563q-11.2,0-14.629-3.516T707.1,819.736Z" fill="#231f20"/>
    <path id="Path_138" data-name="Path 138" d="M745.557,818.7v1.389q0,10.766,9.636,10.765a10.682,10.682,0,0,0,9.2-4.6l7.9,4.6a16.176,16.176,0,0,1-7.032,6.468q-4.256,1.954-11.287,1.954-10.073,0-14.672-5.079t-4.6-16.279v-3.125q0-11.633,4.47-16.8t14.63-5.165q10.156,0,14.628,5.165t4.472,16.8V818.7Zm-.087-7.467h17.277v-.955q0-4.6-2.214-6.989t-6.468-2.387a8.222,8.222,0,0,0-6.338,2.431q-2.259,2.431-2.257,6.945Z" fill="#231f20"/>
    <path id="Path_139" data-name="Path 139" d="M783.669,838.315V793.778h8.248l1.3,3.212a12.041,12.041,0,0,1,9.2-4.167,19.854,19.854,0,0,1,9.55,2.778l-4.688,8.855a9.748,9.748,0,0,0-5.9-2.344,5.5,5.5,0,0,0-5.34,3.43q-1.606,3.43-1.606,11.242v21.531Z" fill="#231f20"/>
    <path id="Path_140" data-name="Path 140" d="M842.1,811.4v-2q0-4.167-1.824-6.077t-5.73-1.91a10.942,10.942,0,0,0-9.029,4.427l-7.466-5.295q5.9-7.727,17.537-7.727,12.066,0,15.627,7.466,1.648,3.386,1.65,11.026v27H844.44l-.694-2.6q-3.906,3.561-12.155,3.56t-11.72-3.169q-3.472-3.169-3.473-10.636,0-7.986,3.6-11.025t13.066-3.039Zm0,7.293H834.37q-4.168,0-5.947,1.476t-1.78,4.861q0,3.387,1.693,4.688t6.034,1.3q5.121,0,6.772-2.431.954-1.3.955-5.209Z" fill="#231f20"/>
    <path id="Path_141" data-name="Path 141" d="M891.5,826.248l7.987,4.514q-5.208,8.509-16.929,8.509-9.465,0-13.978-5.3t-4.515-16.322v-2.778q0-10.764,3.82-15.8,4.689-6.252,14.325-6.251,11.633,0,16.5,8.6l-8.074,4.514a10.927,10.927,0,0,0-3.343-3.516,8.176,8.176,0,0,0-4.21-1,6.947,6.947,0,0,0-6.252,3.038q-2,3.04-2,9.464V818.7q0,11.895,8.508,11.894A9.481,9.481,0,0,0,891.5,826.248Z" fill="#231f20"/>
    <path id="Path_142" data-name="Path 142" d="M910.855,802.286H905.82v-8.508h5.035l.608-13.023h10.158v13.023h8.855v8.508h-8.855v18.492q0,5.124,1.606,6.989t6.034,1.78h1.215v8.768h-1.562q-11.2,0-14.63-3.516t-3.429-15.063Z" fill="#231f20"/>
    <path id="Path_143" data-name="Path 143" d="M940.112,786.832V775.806h10.765v11.026Zm0,51.483V793.778h10.765v44.537Z" fill="#231f20"/>
    <path id="Path_144" data-name="Path 144" d="M975.1,838.315l-15.366-44.537H970.67l9.55,31.428,9.637-31.428H1000.8l-15.367,44.537Z" fill="#231f20"/>
    <path id="Path_145" data-name="Path 145" d="M1017.639,818.7v1.389q0,10.766,9.636,10.765a10.682,10.682,0,0,0,9.2-4.6l7.9,4.6a16.183,16.183,0,0,1-7.033,6.468q-4.254,1.954-11.286,1.954-10.073,0-14.672-5.079t-4.6-16.279v-3.125q0-11.633,4.471-16.8t14.629-5.165q10.158,0,14.629,5.165t4.471,16.8V818.7Zm-.087-7.467h17.276v-.955q0-4.6-2.213-6.989t-6.469-2.387a8.219,8.219,0,0,0-6.337,2.431q-2.259,2.431-2.257,6.945Z" fill="#231f20"/>
    <path id="Path_238" data-name="Path 238" d="M215.753,831.973q5.11,0,6.985-1.285a3.827,3.827,0,0,0,1.873-3.253,4.16,4.16,0,0,0-.979-2.781,9.924,9.924,0,0,0-3.066-2.227,46.685,46.685,0,0,0-5.281-2.225q-3.2-1.155-7.539-2.783a.718.718,0,0,1-.511-1.027l2.3-6.736c.171-.567.511-.767,1.022-.6q2.725,1.022,5.2,2.087t4.855,1.874q2.384.81,4.672,1.362a19.937,19.937,0,0,0,4.735.554h8.493a3.455,3.455,0,0,1,2.556.861,4.383,4.383,0,0,1,.851,3.1,5.844,5.844,0,0,1-.809,3.527,3.1,3.1,0,0,1-2.6,1.033h-5.876a12.947,12.947,0,0,1,.969,2.172,9.133,9.133,0,0,1,.55,3.194,11.114,11.114,0,0,1-.935,4.514,9.995,9.995,0,0,1-2.935,3.748,15.351,15.351,0,0,1-5.189,2.6,26.816,26.816,0,0,1-7.78.98H197.919q-11.058,0-16.457-5.111t-5.4-13.884a25.374,25.374,0,0,1,.468-4.812,35.366,35.366,0,0,1,1.235-4.685,35.982,35.982,0,0,1,1.747-4.259,24.054,24.054,0,0,1,2.086-3.535q.426-.681,1.193-.17l6.729,3.492a.71.71,0,0,1,.255,1.107,35.971,35.971,0,0,0-2.683,5.537,17.583,17.583,0,0,0-1.235,6.473,11.2,11.2,0,0,0,1.15,5.366,9.5,9.5,0,0,0,3.024,3.407,12.5,12.5,0,0,0,4.258,1.832,21.405,21.405,0,0,0,4.856.554Zm-19.08,23.678a.756.756,0,0,1-.851-.859V847.4a.756.756,0,0,1,.851-.861h7.155a.757.757,0,0,1,.852.861v7.394a.757.757,0,0,1-.852.859Zm11.073,0a.756.756,0,0,1-.851-.859V847.4a.756.756,0,0,1,.851-.861H214.9a.757.757,0,0,1,.852.861v7.394a.757.757,0,0,1-.852.859Z" fill="#231f20"/>
    <path id="Path_239" data-name="Path 239" d="M242.754,814.937a4.257,4.257,0,0,0,3.108-.977,4.953,4.953,0,0,0,.98-3.529V766.385a.748.748,0,0,1,.844-.85h7.852a.749.749,0,0,1,.844.85v43.28a4.506,4.506,0,0,0,1.916,3.912,8.734,8.734,0,0,0,5.154,1.36H264.9a3.267,3.267,0,0,1,2.556.946,4.74,4.74,0,0,1,.852,3.184,5.431,5.431,0,0,1-.81,3.442,3.245,3.245,0,0,1-2.6.946,18.464,18.464,0,0,1-5.791-.817,6.835,6.835,0,0,1-3.908-3.571,6.856,6.856,0,0,1-3.419,3.4,15.212,15.212,0,0,1-6.046.989H238.58a3.562,3.562,0,0,1-2.555-.817q-.851-.817-.852-3.571a4.895,4.895,0,0,1,.809-3.226,3.332,3.332,0,0,1,2.6-.9Z" fill="#231f20"/>
    <path id="Path_240" data-name="Path 240" d="M273.247,814.937a16.79,16.79,0,0,1-2.811-4.586,16.385,16.385,0,0,1-1.107-6.369,20.883,20.883,0,0,1,.937-6.072,15.175,15.175,0,0,1,3.108-5.6,16.452,16.452,0,0,1,5.707-4.119,21,21,0,0,1,8.731-1.614,21.553,21.553,0,0,1,9.539,1.917,16.883,16.883,0,0,1,6.133,4.812.8.8,0,0,1-.255,1.193l-4.6,4.77c-.4.4-.795.37-1.192-.086a11.821,11.821,0,0,0-9.029-4.088,8.634,8.634,0,0,0-6.686,2.545,9.747,9.747,0,0,0-2.342,6.87,10.694,10.694,0,0,0,.809,4.367,12.952,12.952,0,0,0,1.873,3.1,9.522,9.522,0,0,0,2.215,1.992,10.854,10.854,0,0,0,1.831.976h18.484a.757.757,0,0,1,.851.86v6.8a.756.756,0,0,1-.851.86H264.985a3.188,3.188,0,0,1-2.556-.989,5.088,5.088,0,0,1-.851-3.313q0-2.495.809-3.355a3.428,3.428,0,0,1,2.6-.861Z" fill="#231f20"/>
    <path id="Path_241" data-name="Path 241" d="M314.642,766.386a.749.749,0,0,1,.843-.851h7.853a.749.749,0,0,1,.844.85v44.046a4.948,4.948,0,0,0,.979,3.529,4.255,4.255,0,0,0,3.109.977h2.981a3.191,3.191,0,0,1,2.556.99,5.261,5.261,0,0,1,.851,3.4q0,2.667-.809,3.4a3.814,3.814,0,0,1-2.6.731h-6.729q-5.322,0-7.6-2.6t-2.278-8.135Z" fill="#231f20"/>
    <path id="Path_242" data-name="Path 242" d="M331.335,823.455a2.748,2.748,0,0,1-2.342-.86,5.655,5.655,0,0,1-.639-3.184,7.234,7.234,0,0,1,.6-3.528,2.613,2.613,0,0,1,2.385-.946h10.221a3.267,3.267,0,0,1,2.556.946,4.9,4.9,0,0,1,.851,3.27q0,2.667-.809,3.485a3.537,3.537,0,0,1-2.6.817Z" fill="#231f20"/>
    <path id="Path_243" data-name="Path 243" d="M341.556,823.455a2.748,2.748,0,0,1-2.342-.86,5.655,5.655,0,0,1-.639-3.184,7.234,7.234,0,0,1,.6-3.528,2.613,2.613,0,0,1,2.385-.946h10.221a3.264,3.264,0,0,1,2.555.946,4.9,4.9,0,0,1,.852,3.27q0,2.667-.809,3.485a3.537,3.537,0,0,1-2.6.817Z" fill="#231f20"/>
    <path id="Path_244" data-name="Path 244" d="M351.777,823.455a2.75,2.75,0,0,1-2.343-.86,5.655,5.655,0,0,1-.639-3.184,7.232,7.232,0,0,1,.6-3.528,2.612,2.612,0,0,1,2.385-.946H362a3.264,3.264,0,0,1,2.555.946,4.9,4.9,0,0,1,.852,3.27q0,2.667-.809,3.485a3.54,3.54,0,0,1-2.6.817Z" fill="#231f20"/>
    <path id="Path_245" data-name="Path 245" d="M362,823.455a2.749,2.749,0,0,1-2.342-.86,5.655,5.655,0,0,1-.639-3.184,7.231,7.231,0,0,1,.6-3.528,2.61,2.61,0,0,1,2.384-.946h10.222a3.264,3.264,0,0,1,2.555.946,4.9,4.9,0,0,1,.852,3.27q0,2.667-.809,3.485a3.54,3.54,0,0,1-2.6.817Z" fill="#231f20"/>
    <path id="Path_246" data-name="Path 246" d="M372.218,823.455a2.749,2.749,0,0,1-2.342-.86,5.655,5.655,0,0,1-.639-3.184,7.246,7.246,0,0,1,.6-3.528,2.613,2.613,0,0,1,2.385-.946H382.44a3.264,3.264,0,0,1,2.555.946,4.9,4.9,0,0,1,.851,3.27q0,2.667-.809,3.485a3.536,3.536,0,0,1-2.6.817Z" fill="#231f20"/>
    <path id="Path_247" data-name="Path 247" d="M382.439,823.455a2.751,2.751,0,0,1-2.343-.86,5.665,5.665,0,0,1-.638-3.184,7.235,7.235,0,0,1,.6-3.528,2.612,2.612,0,0,1,2.385-.946H392.66a3.263,3.263,0,0,1,2.555.946,4.894,4.894,0,0,1,.852,3.27q0,2.667-.809,3.485a3.537,3.537,0,0,1-2.6.817Z" fill="#231f20"/>
    <path id="Path_248" data-name="Path 248" d="M387.549,823.455a2.749,2.749,0,0,1-2.342-.86,5.655,5.655,0,0,1-.639-3.184,7.246,7.246,0,0,1,.6-3.528,2.613,2.613,0,0,1,2.385-.946H397.77a3.263,3.263,0,0,1,2.555.946,4.894,4.894,0,0,1,.852,3.27q0,2.667-.809,3.485a3.537,3.537,0,0,1-2.6.817Z" fill="#231f20"/>
    <path id="Path_249" data-name="Path 249" d="M397.77,823.455a2.749,2.749,0,0,1-2.342-.86,5.655,5.655,0,0,1-.639-3.184,7.246,7.246,0,0,1,.6-3.528,2.613,2.613,0,0,1,2.385-.946h10.221a3.264,3.264,0,0,1,2.555.946,4.9,4.9,0,0,1,.852,3.27q0,2.667-.809,3.485a3.537,3.537,0,0,1-2.6.817Z" fill="#231f20"/>
    <path id="Path_250" data-name="Path 250" d="M407.991,823.455a2.75,2.75,0,0,1-2.343-.86,5.663,5.663,0,0,1-.639-3.184,7.232,7.232,0,0,1,.6-3.528,2.612,2.612,0,0,1,2.385-.946h10.221a3.264,3.264,0,0,1,2.555.946,4.9,4.9,0,0,1,.852,3.27q0,2.667-.809,3.485a3.537,3.537,0,0,1-2.6.817Z" fill="#231f20"/>
    <path id="Path_251" data-name="Path 251" d="M418.211,823.455a2.749,2.749,0,0,1-2.342-.86,5.664,5.664,0,0,1-.639-3.184,7.232,7.232,0,0,1,.6-3.528,2.61,2.61,0,0,1,2.384-.946h10.222a3.264,3.264,0,0,1,2.555.946,4.9,4.9,0,0,1,.852,3.27q0,2.667-.809,3.485a3.54,3.54,0,0,1-2.6.817Z" fill="#231f20"/>
    <path id="Path_252" data-name="Path 252" d="M428.432,823.455a2.749,2.749,0,0,1-2.342-.86,5.655,5.655,0,0,1-.639-3.184,7.246,7.246,0,0,1,.6-3.528,2.613,2.613,0,0,1,2.385-.946h10.222a3.264,3.264,0,0,1,2.555.946,4.9,4.9,0,0,1,.851,3.27q0,2.667-.808,3.485a3.54,3.54,0,0,1-2.6.817Z" fill="#231f20"/>
    <path id="Path_253" data-name="Path 253" d="M438.653,823.455a2.748,2.748,0,0,1-2.342-.86,5.655,5.655,0,0,1-.639-3.184,7.234,7.234,0,0,1,.6-3.528,2.613,2.613,0,0,1,2.385-.946h10.221a3.267,3.267,0,0,1,2.556.946,4.9,4.9,0,0,1,.851,3.27q0,2.667-.809,3.485a3.537,3.537,0,0,1-2.6.817Z" fill="#231f20"/>
    <path id="Path_254" data-name="Path 254" d="M448.874,823.455a2.748,2.748,0,0,1-2.342-.86,5.655,5.655,0,0,1-.639-3.184,7.234,7.234,0,0,1,.6-3.528,2.613,2.613,0,0,1,2.385-.946H459.1a3.264,3.264,0,0,1,2.555.946,4.9,4.9,0,0,1,.852,3.27q0,2.667-.809,3.485a3.537,3.537,0,0,1-2.6.817Z" fill="#231f20"/>
    <path id="Path_255" data-name="Path 255" d="M459.1,823.455a2.75,2.75,0,0,1-2.343-.86,5.655,5.655,0,0,1-.639-3.184,7.232,7.232,0,0,1,.6-3.528,2.612,2.612,0,0,1,2.385-.946h10.221a3.264,3.264,0,0,1,2.555.946,4.9,4.9,0,0,1,.852,3.27q0,2.667-.809,3.485a3.54,3.54,0,0,1-2.6.817Z" fill="#231f20"/>
    <path id="Path_256" data-name="Path 256" d="M469.315,823.455a2.749,2.749,0,0,1-2.342-.86,5.655,5.655,0,0,1-.639-3.184,7.232,7.232,0,0,1,.6-3.528,2.61,2.61,0,0,1,2.384-.946h10.222a3.264,3.264,0,0,1,2.555.946,4.9,4.9,0,0,1,.852,3.27q0,2.667-.809,3.485a3.54,3.54,0,0,1-2.6.817Z" fill="#231f20"/>
    <path id="Path_257" data-name="Path 257" d="M479.536,823.455a2.749,2.749,0,0,1-2.342-.86,5.655,5.655,0,0,1-.639-3.184,7.246,7.246,0,0,1,.6-3.528,2.613,2.613,0,0,1,2.385-.946h10.222a3.264,3.264,0,0,1,2.555.946,4.9,4.9,0,0,1,.851,3.27q0,2.667-.809,3.485a3.536,3.536,0,0,1-2.6.817Z" fill="#231f20"/>
    <path id="Path_258" data-name="Path 258" d="M489.757,823.455a2.751,2.751,0,0,1-2.343-.86,5.665,5.665,0,0,1-.638-3.184,7.234,7.234,0,0,1,.6-3.528,2.612,2.612,0,0,1,2.385-.946h10.221a3.264,3.264,0,0,1,2.555.946,4.894,4.894,0,0,1,.852,3.27q0,2.667-.809,3.485a3.537,3.537,0,0,1-2.6.817Z" fill="#231f20"/>
    <path id="Path_259" data-name="Path 259" d="M522.89,786.573q8.688,0,13.288,4.12a14.033,14.033,0,0,1,4.6,11,15.349,15.349,0,0,1-1.917,7.6,16.423,16.423,0,0,1-5.153,5.647H545.8a3.566,3.566,0,0,1,2.555.817q.851.819.852,3.226a5.644,5.644,0,0,1-.809,3.486,3.168,3.168,0,0,1-2.6.989h-11.84q-3.066,0-5.792-.256a11.825,11.825,0,0,1-5.2-1.789,14.871,14.871,0,0,1-6.005,1.789q-3.2.257-5.665.256H499.978a3.118,3.118,0,0,1-2.555-1.033,5.269,5.269,0,0,1-.852-3.355q0-2.5.809-3.313a3.541,3.541,0,0,1,2.6-.817h12.009a16.735,16.735,0,0,1-5.067-5.647,15.338,15.338,0,0,1-1.917-7.6,14.03,14.03,0,0,1,4.6-11Q514.2,786.574,522.89,786.573Zm0,7.581a8.533,8.533,0,0,0-5.749,2.087,7.694,7.694,0,0,0-2.427,6.175,10.182,10.182,0,0,0,2.384,7.027,16.02,16.02,0,0,0,5.792,4.131,16.2,16.2,0,0,0,5.707-4.131,10.188,10.188,0,0,0,2.385-7.027q0-4.089-2.385-6.175A8.376,8.376,0,0,0,522.89,794.154Zm-4-14.565a.756.756,0,0,1-.852-.86v-7.394a.757.757,0,0,1,.852-.86h8.177a.757.757,0,0,1,.852.86v7.394a.757.757,0,0,1-.852.86Z" fill="#231f20"/>
    <path id="Path_260" data-name="Path 260" d="M545.8,823.455a3.563,3.563,0,0,1-2.556-.817,4.366,4.366,0,0,1-.851-3.141,5.848,5.848,0,0,1,.809-3.527,3.1,3.1,0,0,1,2.6-1.033h5.536a4.262,4.262,0,0,0,3.109-.976,4.941,4.941,0,0,0,.98-3.524V788.955a.748.748,0,0,1,.843-.849h7.852a.75.75,0,0,1,.844.852v23.764q0,5.539-2.279,8.135t-7.6,2.6Zm5.281-43.866a.756.756,0,0,1-.852-.86v-7.394a.756.756,0,0,1,.852-.86h7.154a.757.757,0,0,1,.852.86v7.394a.757.757,0,0,1-.852.86Zm11.072,0a.756.756,0,0,1-.852-.86v-7.394a.757.757,0,0,1,.852-.86h7.155a.757.757,0,0,1,.852.86v7.394a.757.757,0,0,1-.852.86Z" fill="#231f20"/>
    <rect id="Rectangle_23" data-name="Rectangle 23" width="1030.056" height="99.746" transform="translate(81.777 757.679)" fill="none"/>
  </g>
</svg>
