<svg xmlns="http://www.w3.org/2000/svg" width="392.03" height="385.461" viewBox="0 0 392.03 385.461">
  <g id="Group_16" data-name="Group 16" transform="translate(-1488.464 -64.968)">
    <g id="Group_14" data-name="Group 14">
      <path id="Path_288" data-name="Path 288" d="M1588.2,308.7V292.1c0-3.7,1.911-5.614,5.614-5.614h7.047c3.7,0,5.614,1.911,5.614,5.614l.12,8h17.2l-.119-7.645c-.239-14.1-9.317-23.412-23.651-23.412h-5.375c-14.334,0-23.651,10.034-23.651,23.412v40.493c0,13.378,9.317,23.412,23.651,23.412h5.375c14.334,0,23.651-9.317,23.651-23.412v-6.689h-17.2v7.048c0,3.7-1.911,5.614-5.614,5.614h-7.047c-3.7,0-5.614-1.912-5.614-5.614V308.7Z" fill="#231f20"/>
      <path id="Path_289" data-name="Path 289" d="M1687.226,303.567V291.98c0-12.064-8.958-21.859-22.456-21.859h-27.951v86.242h16.126V325.426h3.75l15.361,30.937h18.037l-15.974-32.277C1682.749,321.027,1687.226,313,1687.226,303.567Zm-34.281-17.32h10.989c4.9,0,7.047,2.628,7.047,7.525v7.884c0,5.016-2.15,7.525-7.047,7.525h-10.989Z" fill="#231f20"/>
      <path id="Path_290" data-name="Path 290" d="M1827.1,270.121v16.126h18.515v70.116h16.365V286.247h18.515V270.121Z" fill="#231f20"/>
      <path id="Path_291" data-name="Path 291" d="M1773.707,356.363h16.126v-35h21.74V305.12h-21.74V286.247h25.443V270.121h-41.568Z" fill="#231f20"/>
      <path id="Path_292" data-name="Path 292" d="M1741.1,270.121h-21.859l-18.037,84.57-.358,1.672h16.6l3.225-15.409h18.992l3.225,15.409h16.484l-18.156-85.286Zm-16.723,53.752,5.734-27.234,5.852,27.234Z" fill="#231f20"/>
    </g>
    <path id="Path_293" data-name="Path 293" d="M1488.464,64.968V450.428H1861.98V379.954H1844.3v52.8H1506.142V82.646H1844.3v52.677h17.678V64.968Z" fill="#231f20"/>
    <g id="Group_15" data-name="Group 15">
      <rect id="Rectangle_12" data-name="Rectangle 12" width="15.17" height="15.409" transform="translate(1618.663 188.12)" fill="#231f20"/>
      <rect id="Rectangle_13" data-name="Rectangle 13" width="15.17" height="15.409" transform="translate(1597.76 188.12)" fill="#231f20"/>
      <rect id="Rectangle_14" data-name="Rectangle 14" width="15.17" height="14.214" transform="translate(1684.718 150.016)" fill="#231f20"/>
      <path id="Path_294" data-name="Path 294" d="M1691.885,169.844c-12.423,0-23.054,11.587-23.054,24.726,0,12.781,7.406,19.948,20.426,19.948h11.706v4.539h-31.057c-8.719,0-11.467-1.075-11.467-11.467V194.45h-14.811v12.423c0,9.2-3.345,11.587-16.6,11.587h-23.412c-12.422,0-17.678-4.42-17.678-15.768V188.12H1571v18.992c0,19.59,10.153,29.623,32.609,29.623h22.337c11.826,0,19.232-4.18,21.143-12.422,1.791,8.6,8.361,12.422,19.47,12.422h50.049v-34.4C1716.611,181.072,1704.188,169.844,1691.885,169.844Zm-8.72,24.726a7.19,7.19,0,0,1,7.287-7.048c4.3,0,8.756,4.289,10.1,12.9h-8.3C1686.032,200.423,1683.165,198.392,1683.165,194.57Z" fill="#231f20"/>
      <path id="Path_295" data-name="Path 295" d="M1843.943,193.136h-38.611l38.253-19.47V153.121L1787.444,184.3v26.518h56.021c2.986,0,4.539,1.672,4.539,4.658v3.584H1784.1c-7.883,0-11.467-2.986-11.467-11.109V194.331h-14.811V224.91c0,16.245-2.748,20.306-15.648,20.306h-5.853V261.7h7.286c17.192,0,24.451-8.411,25.8-28.71,2.772,2.845,6.74,3.745,11.351,3.745h81.464V211.771C1862.219,200.423,1854.932,193.136,1843.943,193.136Z" fill="#231f20"/>
      <rect id="Rectangle_15" data-name="Rectangle 15" width="15.528" height="81.464" transform="translate(1727.958 155.271)" fill="#231f20"/>
    </g>
  </g>
</svg>
