<svg xmlns="http://www.w3.org/2000/svg" width="646.699" height="74.104" viewBox="0 0 646.699 74.104">
  <g id="Group_22" data-name="Group 22" transform="translate(-262.595 -401.331)">
    <path id="Path_110" data-name="Path 110" d="M632.609,467.093V422.555h8.161l.781,3.733q3.559-4.687,10.853-4.688,8.334,0,12.154,5.73,3.732-5.73,12.328-5.73,11.286,0,14.412,8.6,1.215,3.561,1.215,11.373v25.525H681.748V442.7q0-6.424-1.563-9.159a5.517,5.517,0,0,0-5.209-2.736,5.676,5.676,0,0,0-5.383,3q-1.65,3-1.649,9.941v23.354H657.178V442.87q0-6.512-1.519-9.289a5.4,5.4,0,0,0-5.166-2.779,5.734,5.734,0,0,0-5.513,3q-1.606,3-1.606,10.2v23.094Z" fill="#231f20"/>
    <path id="Path_111" data-name="Path 111" d="M703.713,448.166v-6.685q0-10.5,4.558-15.193t14.715-4.688q10.071,0,14.629,4.688t4.558,15.193v6.685q0,10.506-4.558,15.194t-14.629,4.688q-10.158,0-14.715-4.688T703.713,448.166Zm27.694-.781v-5.209q0-6.424-1.953-9.2t-6.468-2.778q-4.515,0-6.511,2.778t-2,9.2v5.209q0,6.426,2,9.2t6.511,2.778q4.513,0,6.468-2.778T731.407,447.385Z" fill="#231f20"/>
    <path id="Path_112" data-name="Path 112" d="M781.588,467.093l-.608-3.126-.608.521q-3.995,3.561-11.373,3.56-8.771,0-12.763-4.732t-3.993-15.236v-6.512q0-10.418,3.95-15.193t12.632-4.775a19.847,19.847,0,0,1,7.9,1.563,6.929,6.929,0,0,1,1.649,1.042,1.057,1.057,0,0,1,.261.173.515.515,0,0,0,.217.13,2.7,2.7,0,0,1,.3.131V405.105h10.765v61.988ZM762.921,442.35V447.3q0,6.25,1.954,9.159T771,459.366q8.16,0,8.161-10.158v-8.769q0-10.242-8.161-10.244a6.851,6.851,0,0,0-6.121,2.908Q762.922,436.013,762.921,442.35Z" fill="#231f20"/>
    <path id="Path_113" data-name="Path 113" d="M812.32,447.472v1.389q0,10.766,9.636,10.765a10.682,10.682,0,0,0,9.2-4.6l7.9,4.6a16.17,16.17,0,0,1-7.032,6.468q-4.256,1.953-11.287,1.954-10.073,0-14.672-5.079t-4.6-16.279v-3.125q0-11.633,4.471-16.8t14.629-5.166q10.156,0,14.628,5.166t4.472,16.8v3.907Zm-.087-7.467H829.51v-.955q0-4.6-2.214-6.988t-6.468-2.388a8.222,8.222,0,0,0-6.338,2.431q-2.259,2.432-2.257,6.945Z" fill="#231f20"/>
    <path id="Path_114" data-name="Path 114" d="M850,405.105h10.765v44.45q-.087,5.037,1.563,6.946t6.077,1.823h1.65v8.769h-2.084q-10.938,0-14.455-3.647T850,448.514Z" fill="#231f20"/>
    <path id="Path_115" data-name="Path 115" d="M872.223,459.539l7.9-4.6a10.517,10.517,0,0,0,3.994,3.646,15.091,15.091,0,0,0,6.077.955q8.856,0,8.856-5.643a3.781,3.781,0,0,0-2.431-3.906,34.522,34.522,0,0,0-7.12-1.3q-8.249-1.041-11.59-3.906t-3.342-9.03q0-6.857,4.167-10.505t11.894-3.646q12.155,0,17.451,8.508l-7.988,4.6a10.468,10.468,0,0,0-3.646-3.6,10.9,10.9,0,0,0-5.035-1q-6.6,0-6.6,5.122a3.75,3.75,0,0,0,1.563,3.43q1.563,1,6.164,1.519,9.376,1.043,12.676,3.386,4.078,2.865,4.08,10.505,0,7.119-4.558,10.548t-14.108,3.43Q876.737,468.048,872.223,459.539Z" fill="#231f20"/>
    <path id="Path_197" data-name="Path 197" d="M314.68,449.758a4.945,4.945,0,0,0,.98-3.524V424.752a.751.751,0,0,1,.852-.849h7.836a.753.753,0,0,1,.852.852v23.764q0,5.538-2.3,8.134t-7.837,2.6h-42.5q-5.365,0-7.665-2.623t-2.3-8.195V430.12a.752.752,0,0,1,.851-.851h7.837a.753.753,0,0,1,.851.851v16.1a4.965,4.965,0,0,0,.98,3.535,4.251,4.251,0,0,0,3.109.979h35.263A4.4,4.4,0,0,0,314.68,449.758Zm-29.6-29.347a.757.757,0,0,1-.852-.86v-7.395a.756.756,0,0,1,.852-.859h7.155a.757.757,0,0,1,.852.859v7.395a.757.757,0,0,1-.852.86Zm11.073,0a.756.756,0,0,1-.851-.86v-7.395a.756.756,0,0,1,.851-.859h7.155a.757.757,0,0,1,.852.859v7.395a.757.757,0,0,1-.852.86Z" fill="#231f20"/>
    <path id="Path_198" data-name="Path 198" d="M335.079,402.183a.75.75,0,0,1,.844-.852h7.852a.749.749,0,0,1,.844.85v44.046a4.951,4.951,0,0,0,.979,3.529,4.253,4.253,0,0,0,3.11.977h2.981a3.187,3.187,0,0,1,2.555.99,5.255,5.255,0,0,1,.851,3.4q0,2.667-.809,3.4a3.813,3.813,0,0,1-2.6.731H344.96q-5.322,0-7.6-2.6t-2.279-8.134Z" fill="#231f20"/>
    <path id="Path_199" data-name="Path 199" d="M360.375,440.457a24.548,24.548,0,0,1,1.408-8.364,14.621,14.621,0,0,1,3.672-5.6,14.209,14.209,0,0,1,5.507-3.142,24.743,24.743,0,0,1,13.919.042,14.276,14.276,0,0,1,5.592,3.226,14.8,14.8,0,0,1,3.671,5.86,26.037,26.037,0,0,1,1.324,8.832v1.486a11.415,11.415,0,0,1-.085,1.4q.084,3.567,1.661,5.053a5.125,5.125,0,0,0,3.62,1.485h2.47a3.265,3.265,0,0,1,2.555.947,4.735,4.735,0,0,1,.852,3.183,5.437,5.437,0,0,1-.809,3.442,3.245,3.245,0,0,1-2.6.946q-1.449,0-3.024-.085a13.424,13.424,0,0,1-3.151-.56,11.991,11.991,0,0,1-3-1.379,8.912,8.912,0,0,1-2.535-2.542,12.89,12.89,0,0,1-5.752,3.958,25.89,25.89,0,0,1-15.466.044,12.886,12.886,0,0,1-5.71-3.829,7.76,7.76,0,0,1-2.064,2.24,10.537,10.537,0,0,1-2.485,1.335,11.845,11.845,0,0,1-2.643.646,20.421,20.421,0,0,1-2.555.172h-2.981a3.189,3.189,0,0,1-2.556-.989,5.084,5.084,0,0,1-.852-3.312q0-2.5.81-3.355a3.425,3.425,0,0,1,2.6-.862H355.1a5,5,0,0,0,3.662-1.655q1.617-1.658,1.7-6.073a10.2,10.2,0,0,1-.086-1.273Zm17.5-9.57q-4.068,0-6.016,2.63t-1.948,7.634q0,5.43,1.948,7.8t6.016,2.374q4.152,0,6.1-2.416t1.948-7.762Q385.928,430.888,377.879,430.887Z" fill="#231f20"/>
    <path id="Path_201" data-name="Path 201" d="M423.321,445.452a5.137,5.137,0,0,0,1.415,4,6.6,6.6,0,0,0,4.505,1.277,15.1,15.1,0,0,0,3.387-.3,2.87,2.87,0,0,0,1.844-1.235,5.529,5.529,0,0,0,.73-2.555q.127-1.617.129-4.344V431.4a.75.75,0,0,1,.844-.852h7.852a.75.75,0,0,1,.843.852v14.225A4.548,4.548,0,0,0,446.5,449.5a6.917,6.917,0,0,0,4.291,1.235,13.622,13.622,0,0,0,3.173-.3,3.1,3.1,0,0,0,1.845-1.188,5.27,5.27,0,0,0,.815-2.547q.173-1.656.172-4.288V424.752a.748.748,0,0,1,.844-.849h7.852a.748.748,0,0,1,.844.849V445.47a4.5,4.5,0,0,0,1.916,3.9,8.748,8.748,0,0,0,5.154,1.358h1.448a3.265,3.265,0,0,1,2.555.947,4.735,4.735,0,0,1,.852,3.183,5.231,5.231,0,0,1-.852,3.442,3.268,3.268,0,0,1-2.555.946,18.045,18.045,0,0,1-5.75-.817,6.849,6.849,0,0,1-3.866-3.571,6.894,6.894,0,0,1-3.45,3.4,15.434,15.434,0,0,1-6.09.989h-3.662a10.268,10.268,0,0,1-5.068-1.162,7.762,7.762,0,0,1-3.194-3.313,6.85,6.85,0,0,1-3.45,3.486,15.438,15.438,0,0,1-6.09.989h-3.748q-6.048,0-8.262-4.56a7.01,7.01,0,0,1-3.419,3.528,14.639,14.639,0,0,1-6.045,1.032h-9.2a15.484,15.484,0,0,1-1.7-.085,2.538,2.538,0,0,1-1.277-.474,2.315,2.315,0,0,1-.767-1.162,7.145,7.145,0,0,1-.255-2.15,6.039,6.039,0,0,1,.809-3.614,3.1,3.1,0,0,1,2.6-1.033h6.814a4.736,4.736,0,0,0,2.342-.468,2.762,2.762,0,0,0,1.192-1.491,8.117,8.117,0,0,0,.426-2.6q.042-1.575.043-3.875V431.4a.75.75,0,0,1,.844-.852h7.852a.75.75,0,0,1,.844.852Z" fill="#231f20"/>
    <path id="Path_202" data-name="Path 202" d="M479.451,429.269a22.525,22.525,0,0,1,6.3-4.94,18.752,18.752,0,0,1,8.944-1.96,23.074,23.074,0,0,1,9.539,1.741,16.06,16.06,0,0,1,6.133,4.672,18.047,18.047,0,0,1,3.28,6.793,33.337,33.337,0,0,1,.979,8.195c0,.4-.015.764-.043,1.1s-.042.681-.042,1.02a4.783,4.783,0,0,0,2.087,3.567,8.593,8.593,0,0,0,4.982,1.273h1.448a3.266,3.266,0,0,1,2.556.947,4.736,4.736,0,0,1,.851,3.183,5.437,5.437,0,0,1-.809,3.442,3.245,3.245,0,0,1-2.6.946,18.835,18.835,0,0,1-6.26-.946,7.229,7.229,0,0,1-4.131-4.13,8.44,8.44,0,0,1-4.472,4,19.758,19.758,0,0,1-6.942,1.075h-26.32a3.187,3.187,0,0,1-2.555-.989,5.084,5.084,0,0,1-.852-3.312q0-2.5.81-3.355a3.424,3.424,0,0,1,2.6-.862h22.658a15.308,15.308,0,0,0,3.577-.339,4.122,4.122,0,0,0,2.129-1.187,4.449,4.449,0,0,0,1.022-2.247,19.467,19.467,0,0,0,.256-3.436,22.947,22.947,0,0,0-.511-5,11.025,11.025,0,0,0-1.7-3.986,8.385,8.385,0,0,0-3.109-2.672,10.569,10.569,0,0,0-4.813-.976,11.64,11.64,0,0,0-5.11,1.107,14.057,14.057,0,0,0-4.089,2.981.785.785,0,0,1-1.193.086l-4.429-4.6Q478.938,429.78,479.451,429.269ZM491.8,475.435a.757.757,0,0,1-.852-.86v-7.4a.756.756,0,0,1,.852-.859h8.176a.756.756,0,0,1,.852.859v7.4a.757.757,0,0,1-.852.86Z" fill="#231f20"/>
    <path id="Path_203" data-name="Path 203" d="M549.183,459.847a23.777,23.777,0,0,1-7.678-1.16,12.9,12.9,0,0,1-5.716-3.829,7.774,7.774,0,0,1-2.064,2.24,10.556,10.556,0,0,1-2.485,1.335,11.858,11.858,0,0,1-2.643.646,20.421,20.421,0,0,1-2.555.172H523.06a3.187,3.187,0,0,1-2.555-.989,5.084,5.084,0,0,1-.852-3.312q0-2.5.81-3.355a3.424,3.424,0,0,1,2.6-.862h3.322a4.906,4.906,0,0,0,1.874-.382,4.482,4.482,0,0,0,1.7-1.273,7.2,7.2,0,0,0,1.277-2.379,11.47,11.47,0,0,0,.511-3.694,10.193,10.193,0,0,1-.085-1.273v-1.275a24.548,24.548,0,0,1,1.408-8.364,14.62,14.62,0,0,1,3.672-5.6,14.209,14.209,0,0,1,5.507-3.142,24.708,24.708,0,0,1,13.919.045,14.278,14.278,0,0,1,5.592,3.236,14.869,14.869,0,0,1,3.671,5.878,26.183,26.183,0,0,1,1.324,8.858,24.884,24.884,0,0,1-1.28,8.518,14.833,14.833,0,0,1-3.583,5.706,13.885,13.885,0,0,1-5.545,3.237A23.758,23.758,0,0,1,549.183,459.847Zm-.016-28.96q-4.068,0-6.016,2.63t-1.948,7.634q0,5.43,1.948,7.8t6.016,2.374q4.152,0,6.1-2.416t1.948-7.762Q557.216,430.888,549.167,430.887Z" fill="#231f20"/>
  </g>
</svg>
