<svg xmlns="http://www.w3.org/2000/svg" width="1030.056" height="81.414" viewBox="0 0 1030.056 81.414">
  <g id="museum" transform="translate(-81.777 -579.887)">
    <path id="Path_122" data-name="Path 122" d="M632.609,652.7V608.167h8.161l.781,3.733q3.559-4.689,10.853-4.689,8.334,0,12.154,5.73,3.732-5.728,12.328-5.73,11.286,0,14.412,8.6,1.215,3.559,1.215,11.373V652.7H681.748v-24.4q0-6.423-1.563-9.159a5.518,5.518,0,0,0-5.209-2.735,5.676,5.676,0,0,0-5.383,3q-1.65,2.994-1.649,9.94V652.7H657.178V628.482q0-6.512-1.519-9.29a5.4,5.4,0,0,0-5.166-2.778,5.734,5.734,0,0,0-5.513,3q-1.606,2.994-1.606,10.2V652.7Z" fill="#231f20"/>
    <path id="Path_123" data-name="Path 123" d="M704.754,608.167H715.52v24.222q0,6.512,1.606,9.289t5.426,2.778q4.167,0,5.86-3.038t1.693-10.332V608.167h10.766V652.7H733.4l-1.3-4.167q-3.386,5.123-11.634,5.122-11.375,0-14.412-8.595-1.3-3.647-1.3-11.46Z" fill="#231f20"/>
    <path id="Path_124" data-name="Path 124" d="M749.205,645.151l7.9-4.6A10.52,10.52,0,0,0,761.1,644.2a15.09,15.09,0,0,0,6.077.955q8.856,0,8.856-5.643A3.783,3.783,0,0,0,773.6,635.6a34.621,34.621,0,0,0-7.12-1.3q-8.249-1.043-11.59-3.907t-3.342-9.029q0-6.858,4.167-10.505t11.894-3.647q12.155,0,17.451,8.508l-7.988,4.6a10.472,10.472,0,0,0-3.646-3.6,10.9,10.9,0,0,0-5.035-1q-6.6,0-6.6,5.123a3.748,3.748,0,0,0,1.563,3.429q1.563,1,6.164,1.52,9.376,1.041,12.676,3.385,4.078,2.865,4.08,10.505,0,7.12-4.558,10.549t-14.108,3.429Q753.719,653.659,749.205,645.151Z" fill="#231f20"/>
    <path id="Path_125" data-name="Path 125" d="M805.637,633.083v1.389q0,10.767,9.636,10.766a10.682,10.682,0,0,0,9.2-4.6l7.9,4.6a16.183,16.183,0,0,1-7.033,6.468q-4.254,1.953-11.286,1.953-10.072,0-14.672-5.079t-4.6-16.278v-3.126q0-11.633,4.471-16.8t14.629-5.166q10.158,0,14.629,5.166t4.471,16.8v3.907Zm-.087-7.466h17.276v-.955q0-4.6-2.213-6.989t-6.468-2.387a8.223,8.223,0,0,0-6.338,2.43q-2.259,2.433-2.257,6.946Z" fill="#231f20"/>
    <path id="Path_126" data-name="Path 126" d="M843.4,608.167h10.765v24.222q0,6.512,1.606,9.289t5.426,2.778q4.169,0,5.861-3.038t1.692-10.332V608.167h10.766V652.7h-7.467l-1.3-4.167q-3.386,5.123-11.634,5.122-11.373,0-14.411-8.595-1.3-3.647-1.3-11.46Z" fill="#231f20"/>
    <path id="Path_127" data-name="Path 127" d="M892.366,652.7V608.167h8.161l.782,3.733q3.558-4.689,10.852-4.689,8.336,0,12.154,5.73,3.732-5.728,12.329-5.73,11.285,0,14.411,8.6,1.215,3.559,1.216,11.373V652.7H941.506v-24.4q0-6.423-1.563-9.159a5.519,5.519,0,0,0-5.209-2.735,5.675,5.675,0,0,0-5.383,3q-1.65,2.994-1.65,9.94V652.7H916.936V628.482q0-6.512-1.519-9.29a5.405,5.405,0,0,0-5.166-2.778,5.732,5.732,0,0,0-5.513,3q-1.608,2.994-1.606,10.2V652.7Z" fill="#231f20"/>
    <path id="Path_128" data-name="Path 128" d="M960.345,645.151l7.9-4.6a10.513,10.513,0,0,0,3.994,3.647,15.09,15.09,0,0,0,6.077.955q8.856,0,8.855-5.643a3.782,3.782,0,0,0-2.431-3.907,34.589,34.589,0,0,0-7.119-1.3q-8.248-1.043-11.59-3.907t-3.343-9.029q0-6.858,4.168-10.505t11.894-3.647q12.155,0,17.45,8.508l-7.987,4.6a10.472,10.472,0,0,0-3.646-3.6,10.9,10.9,0,0,0-5.036-1q-6.6,0-6.6,5.123a3.748,3.748,0,0,0,1.563,3.429q1.563,1,6.164,1.52,9.377,1.041,12.676,3.385,4.078,2.865,4.08,10.505,0,7.12-4.558,10.549t-14.108,3.429Q964.859,653.659,960.345,645.151Z" fill="#231f20"/>
    <path id="Path_212" data-name="Path 212" d="M256.892,632.835a16.406,16.406,0,0,1-5.154-5.647,15.18,15.18,0,0,1-1.916-7.515q0-6.963,4.6-11.082t13.287-4.12q8.688,0,13.288,4.12t4.6,11.082a15.17,15.17,0,0,1-1.917,7.515,16.423,16.423,0,0,1-5.153,5.647h12.1a3.566,3.566,0,0,1,2.555.817q.85.819.852,3.227a5.643,5.643,0,0,1-.809,3.485,3.168,3.168,0,0,1-2.6.989H279.8a60.136,60.136,0,0,1-6.856-.341,12.412,12.412,0,0,1-5.154-1.7,18.989,18.989,0,0,1-6.558,1.746q-3.493.3-8.262.3H222.566q-5.367,0-7.666-2.623t-2.3-8.194V612.052a.752.752,0,0,1,.852-.851h7.836a.753.753,0,0,1,.852.851v16.269a4.965,4.965,0,0,0,.979,3.535,4.253,4.253,0,0,0,3.109.979Zm10.817-20.783A8.378,8.378,0,0,0,262,614.139q-2.385,2.088-2.384,6.26A10.054,10.054,0,0,0,262,627.341a16.207,16.207,0,0,0,5.707,4.132,16.024,16.024,0,0,0,5.792-4.132,10.059,10.059,0,0,0,2.385-6.942q0-4.172-2.427-6.26A8.536,8.536,0,0,0,267.709,612.052Zm-4.259-14.565a.756.756,0,0,1-.851-.86v-7.394a.756.756,0,0,1,.851-.86h8.177a.758.758,0,0,1,.852.86v7.394a.757.757,0,0,1-.852.86Z" fill="#231f20"/>
    <path id="Path_213" data-name="Path 213" d="M290.621,641.353a3.187,3.187,0,0,1-2.555-.989,5.079,5.079,0,0,1-.852-3.312q0-2.5.809-3.355a3.424,3.424,0,0,1,2.6-.862h22.657a15.306,15.306,0,0,0,3.577-.339,4.129,4.129,0,0,0,2.13-1.187,4.474,4.474,0,0,0,1.022-2.247,19.575,19.575,0,0,0,.255-3.436,23.529,23.529,0,0,0-.511-5.045,11.046,11.046,0,0,0-1.7-4.029,8.044,8.044,0,0,0-3.109-2.63,10.989,10.989,0,0,0-4.813-.933,11.627,11.627,0,0,0-5.11,1.108,14.04,14.04,0,0,0-4.089,2.981.784.784,0,0,1-1.192.085l-4.43-4.6q-.682-.68-.17-1.192a22.529,22.529,0,0,1,6.3-4.94,18.745,18.745,0,0,1,8.943-1.96,23.019,23.019,0,0,1,9.539,1.747,16.065,16.065,0,0,1,6.133,4.684,18.122,18.122,0,0,1,3.28,6.815,33.486,33.486,0,0,1,.979,8.219,28.214,28.214,0,0,1-.852,7.581,11.181,11.181,0,0,1-2.512,4.727,8.809,8.809,0,0,1-4.174,2.428,22.369,22.369,0,0,1-5.835.681Z" fill="#231f20"/>
    <path id="Path_214" data-name="Path 214" d="M340.193,584.285a.75.75,0,0,1,.844-.852h7.853a.749.749,0,0,1,.843.85v44.046a4.946,4.946,0,0,0,.98,3.529,4.25,4.25,0,0,0,3.109.977H356.8a3.187,3.187,0,0,1,2.555.99,5.256,5.256,0,0,1,.852,3.4q0,2.667-.809,3.4a3.813,3.813,0,0,1-2.6.731h-6.729q-5.322,0-7.6-2.6t-2.279-8.134Z" fill="#231f20"/>
    <path id="Path_215" data-name="Path 215" d="M356.887,641.353a2.749,2.749,0,0,1-2.342-.86,5.651,5.651,0,0,1-.639-3.183,7.241,7.241,0,0,1,.6-3.528,2.613,2.613,0,0,1,2.385-.947h10.221a3.268,3.268,0,0,1,2.556.947,4.9,4.9,0,0,1,.851,3.27q0,2.667-.809,3.484a3.533,3.533,0,0,1-2.6.817Z" fill="#231f20"/>
    <path id="Path_216" data-name="Path 216" d="M362,641.353a2.749,2.749,0,0,1-2.342-.86,5.651,5.651,0,0,1-.639-3.183,7.241,7.241,0,0,1,.6-3.528,2.613,2.613,0,0,1,2.385-.947h10.221a3.267,3.267,0,0,1,2.556.947,4.9,4.9,0,0,1,.852,3.27q0,2.667-.81,3.484a3.533,3.533,0,0,1-2.6.817Z" fill="#231f20"/>
    <path id="Path_217" data-name="Path 217" d="M372.218,641.353a2.749,2.749,0,0,1-2.342-.86,5.651,5.651,0,0,1-.639-3.183,7.241,7.241,0,0,1,.6-3.528,2.612,2.612,0,0,1,2.385-.947h10.221a3.267,3.267,0,0,1,2.556.947,4.9,4.9,0,0,1,.851,3.27q0,2.667-.809,3.484a3.533,3.533,0,0,1-2.6.817Z" fill="#231f20"/>
    <path id="Path_218" data-name="Path 218" d="M382.439,641.353a2.751,2.751,0,0,1-2.343-.86,5.653,5.653,0,0,1-.638-3.183,7.229,7.229,0,0,1,.6-3.528,2.612,2.612,0,0,1,2.385-.947H392.66a3.265,3.265,0,0,1,2.555.947,4.9,4.9,0,0,1,.852,3.27q0,2.667-.809,3.484a3.536,3.536,0,0,1-2.6.817Z" fill="#231f20"/>
    <path id="Path_219" data-name="Path 219" d="M392.66,641.353a2.75,2.75,0,0,1-2.343-.86,5.651,5.651,0,0,1-.639-3.183,7.226,7.226,0,0,1,.6-3.528,2.612,2.612,0,0,1,2.385-.947h10.221a3.265,3.265,0,0,1,2.555.947,4.9,4.9,0,0,1,.852,3.27q0,2.667-.809,3.484a3.536,3.536,0,0,1-2.6.817Z" fill="#231f20"/>
    <path id="Path_220" data-name="Path 220" d="M402.88,641.353a2.749,2.749,0,0,1-2.342-.86,5.651,5.651,0,0,1-.639-3.183,7.241,7.241,0,0,1,.6-3.528,2.613,2.613,0,0,1,2.385-.947H413.1a3.267,3.267,0,0,1,2.556.947,4.9,4.9,0,0,1,.852,3.27q0,2.667-.81,3.484a3.533,3.533,0,0,1-2.6.817Z" fill="#231f20"/>
    <path id="Path_221" data-name="Path 221" d="M413.1,641.353a2.749,2.749,0,0,1-2.342-.86,5.651,5.651,0,0,1-.639-3.183,7.241,7.241,0,0,1,.6-3.528,2.613,2.613,0,0,1,2.385-.947h10.221a3.268,3.268,0,0,1,2.556.947,4.9,4.9,0,0,1,.851,3.27q0,2.667-.809,3.484a3.533,3.533,0,0,1-2.6.817Z" fill="#231f20"/>
    <path id="Path_222" data-name="Path 222" d="M423.322,641.353a2.749,2.749,0,0,1-2.342-.86,5.651,5.651,0,0,1-.639-3.183,7.241,7.241,0,0,1,.6-3.528,2.612,2.612,0,0,1,2.385-.947h10.221a3.268,3.268,0,0,1,2.556.947,4.9,4.9,0,0,1,.851,3.27q0,2.667-.809,3.484a3.535,3.535,0,0,1-2.6.817Z" fill="#231f20"/>
    <path id="Path_223" data-name="Path 223" d="M433.543,641.353a2.751,2.751,0,0,1-2.343-.86,5.652,5.652,0,0,1-.638-3.183,7.243,7.243,0,0,1,.6-3.528,2.615,2.615,0,0,1,2.386-.947h10.221a3.265,3.265,0,0,1,2.555.947,4.9,4.9,0,0,1,.852,3.27q0,2.667-.809,3.484a3.536,3.536,0,0,1-2.6.817Z" fill="#231f20"/>
    <path id="Path_224" data-name="Path 224" d="M443.764,641.353a2.75,2.75,0,0,1-2.343-.86,5.651,5.651,0,0,1-.639-3.183,7.241,7.241,0,0,1,.6-3.528,2.615,2.615,0,0,1,2.386-.947h10.221a3.265,3.265,0,0,1,2.555.947,4.9,4.9,0,0,1,.852,3.27q0,2.667-.81,3.484a3.532,3.532,0,0,1-2.6.817Z" fill="#231f20"/>
    <path id="Path_225" data-name="Path 225" d="M453.984,641.353a2.749,2.749,0,0,1-2.342-.86A5.651,5.651,0,0,1,451,637.31a7.241,7.241,0,0,1,.6-3.528,2.613,2.613,0,0,1,2.385-.947H464.2a3.267,3.267,0,0,1,2.556.947,4.9,4.9,0,0,1,.852,3.27q0,2.667-.81,3.484a3.533,3.533,0,0,1-2.6.817Z" fill="#231f20"/>
    <path id="Path_226" data-name="Path 226" d="M464.2,641.353a2.749,2.749,0,0,1-2.342-.86,5.651,5.651,0,0,1-.639-3.183,7.241,7.241,0,0,1,.6-3.528,2.613,2.613,0,0,1,2.385-.947h10.221a3.268,3.268,0,0,1,2.556.947,4.9,4.9,0,0,1,.851,3.27q0,2.667-.809,3.484a3.533,3.533,0,0,1-2.6.817Z" fill="#231f20"/>
    <path id="Path_227" data-name="Path 227" d="M474.426,641.353a2.748,2.748,0,0,1-2.342-.86,5.649,5.649,0,0,1-.64-3.183,7.227,7.227,0,0,1,.6-3.528,2.612,2.612,0,0,1,2.385-.947h10.221a3.265,3.265,0,0,1,2.555.947,4.9,4.9,0,0,1,.852,3.27q0,2.667-.809,3.484a3.535,3.535,0,0,1-2.6.817Z" fill="#231f20"/>
    <path id="Path_228" data-name="Path 228" d="M484.647,641.353a2.751,2.751,0,0,1-2.343-.86,5.651,5.651,0,0,1-.639-3.183,7.241,7.241,0,0,1,.6-3.528,2.615,2.615,0,0,1,2.386-.947h10.221a3.265,3.265,0,0,1,2.555.947,4.9,4.9,0,0,1,.852,3.27q0,2.667-.809,3.484a3.536,3.536,0,0,1-2.6.817Z" fill="#231f20"/>
    <path id="Path_229" data-name="Path 229" d="M513.276,636.965a6.532,6.532,0,0,1-3.588,3.442,18.1,18.1,0,0,1-6.473.946h-7.922a3.557,3.557,0,0,1-2.555-.817q-.851-.816-.852-3.226a5.635,5.635,0,0,1,.81-3.485,3.164,3.164,0,0,1,2.6-.99h5.537a4.748,4.748,0,0,0,2.342-.467,2.764,2.764,0,0,0,1.193-1.442,8.358,8.358,0,0,0,.468-2.548q.084-1.57.085-3.863V606.854a.66.66,0,0,1,.465-.679,2.8,2.8,0,0,1,.97-.17h7.261a.748.748,0,0,1,.844.849v20.718a4.494,4.494,0,0,0,1.916,3.9,8.746,8.746,0,0,0,5.153,1.358h1.449a3.265,3.265,0,0,1,2.555.947,4.737,4.737,0,0,1,.852,3.183,5.443,5.443,0,0,1-.809,3.442,3.244,3.244,0,0,1-2.6.946,18.449,18.449,0,0,1-5.793-.817A6.83,6.83,0,0,1,513.276,636.965Zm-12.617-39.478a.756.756,0,0,1-.852-.86v-7.394a.757.757,0,0,1,.852-.86h7.155a.758.758,0,0,1,.852.86v7.394a.757.757,0,0,1-.852.86Zm11.073,0a.756.756,0,0,1-.851-.86v-7.394a.756.756,0,0,1,.851-.86h7.155a.758.758,0,0,1,.852.86v7.394a.757.757,0,0,1-.852.86Z" fill="#231f20"/>
    <path id="Path_230" data-name="Path 230" d="M549.183,641.949a23.776,23.776,0,0,1-7.678-1.16,12.905,12.905,0,0,1-5.716-3.829,7.774,7.774,0,0,1-2.064,2.24,10.554,10.554,0,0,1-2.485,1.335,11.855,11.855,0,0,1-2.643.646,20.421,20.421,0,0,1-2.555.172H523.06a3.187,3.187,0,0,1-2.555-.989,5.085,5.085,0,0,1-.852-3.312q0-2.5.81-3.355a3.423,3.423,0,0,1,2.6-.862h3.322a4.906,4.906,0,0,0,1.874-.382,4.482,4.482,0,0,0,1.7-1.273,7.2,7.2,0,0,0,1.277-2.379,11.47,11.47,0,0,0,.511-3.694,10.19,10.19,0,0,1-.085-1.272V622.56a24.549,24.549,0,0,1,1.408-8.365,14.62,14.62,0,0,1,3.672-5.6,14.21,14.21,0,0,1,5.507-3.142,24.708,24.708,0,0,1,13.919.045,14.278,14.278,0,0,1,5.592,3.236,14.876,14.876,0,0,1,3.671,5.878,26.184,26.184,0,0,1,1.324,8.858,24.884,24.884,0,0,1-1.28,8.518,14.834,14.834,0,0,1-3.583,5.706,13.873,13.873,0,0,1-5.545,3.237A23.759,23.759,0,0,1,549.183,641.949Zm-.016-28.96q-4.068,0-6.016,2.63t-1.948,7.634q0,5.43,1.948,7.8t6.016,2.374q4.152,0,6.1-2.416t1.948-7.762Q557.216,612.99,549.167,612.989Z" fill="#231f20"/>
    <rect id="Rectangle_21" data-name="Rectangle 21" width="1030.056" height="81.414" transform="translate(81.777 579.887)" fill="none"/>
  </g>
</svg>
